<?xml version="1.0" encoding="iso-8859-1"?>
<!-- Generator: Adobe Illustrator 19.0.0, SVG Export Plug-In . SVG Version: 6.00 Build 0)  -->
<svg xmlns="http://www.w3.org/2000/svg" xmlns:xlink="http://www.w3.org/1999/xlink" version="1.1" id="Capa_1" x="0px" y="0px" viewBox="0 0 512 512" style="enable-background:new 0 0 512 512;" xml:space="preserve" width="512px" height="512px">
<g>
	<g>
		<path d="M117.627,198.823H88.312c-10.753,0-19.501,8.748-19.501,19.501v29.315c0,10.753,8.749,19.501,19.501,19.501h29.315    c10.753,0,19.501-8.749,19.501-19.501v-29.315C137.128,207.572,128.38,198.823,117.627,198.823z M122.127,247.64    c0,2.439-2.061,4.5-4.5,4.5H88.312c-2.439,0-4.5-2.061-4.5-4.5v-29.315c0-2.439,2.061-4.5,4.5-4.5h29.315    c2.439,0,4.5,2.061,4.5,4.5V247.64z"/>
	</g>
</g>
<g>
	<g>
		<path d="M140.998,312.612c0-10.753-8.749-19.501-19.501-19.501H92.183c-10.753,0-19.501,8.749-19.501,19.501v29.315    c0,10.753,8.749,19.501,19.501,19.501h29.315c10.753,0,19.501-8.749,19.501-19.501L140.998,312.612L140.998,312.612z     M125.998,341.926L125.998,341.926c-0.001,2.439-2.062,4.5-4.501,4.5H92.183c-2.439,0-4.5-2.061-4.5-4.5v-29.315    c0-2.439,2.061-4.5,4.5-4.5h29.315c2.439,0,4.5,2.061,4.5,4.5V341.926z"/>
	</g>
</g>
<g>
	<g>
		<path d="M120.293,387.175H90.979c-10.753,0-19.501,8.748-19.501,19.501v29.315c0,10.754,8.748,19.501,19.501,19.501h29.315    c10.753,0,19.501-8.748,19.501-19.501v-29.315C139.794,395.924,131.046,387.175,120.293,387.175z M124.794,435.991    c0,2.439-2.061,4.5-4.5,4.5H90.979c-2.439,0-4.5-2.061-4.5-4.5v-29.315c0-2.439,2.061-4.5,4.5-4.5h29.315    c2.439,0,4.5,2.061,4.5,4.5V435.991z"/>
	</g>
</g>
<g>
	<g>
		<path d="M210.753,198.823h-29.315c-10.753,0-19.501,8.748-19.501,19.501v29.315c0,10.753,8.749,19.501,19.501,19.501h29.315    c10.753,0,19.501-8.749,19.501-19.501v-29.315C230.254,207.572,221.505,198.823,210.753,198.823z M215.253,247.64    c0,2.439-2.061,4.5-4.5,4.5h-29.315c-2.439,0-4.5-2.061-4.5-4.5v-29.315c0-2.439,2.061-4.5,4.5-4.5h29.315    c2.439,0,4.5,2.061,4.5,4.5V247.64z"/>
	</g>
</g>
<g>
	<g>
		<path d="M212.688,293.111h-29.315c-10.753,0-19.501,8.749-19.501,19.501v29.315c0,10.753,8.749,19.501,19.501,19.501h29.315    c10.753,0,19.501-8.749,19.501-19.501v-29.315C232.189,301.858,223.441,293.111,212.688,293.111z M217.188,341.926    c0,2.439-2.061,4.5-4.5,4.5h-29.315c-2.439,0-4.5-2.061-4.5-4.5v-29.315c0-2.439,2.061-4.5,4.5-4.5h29.315    c2.439,0,4.5,2.061,4.5,4.5V341.926z"/>
	</g>
</g>
<g>
	<g>
		<path d="M212.086,387.175h-29.315c-10.753,0-19.501,8.748-19.501,19.501v29.315c0,10.754,8.749,19.501,19.501,19.501h29.315    c10.753,0,19.501-8.748,19.501-19.501v-29.315C231.587,395.924,222.839,387.175,212.086,387.175z M216.586,435.991    c0,2.439-2.061,4.5-4.5,4.5h-29.315c-2.439,0-4.5-2.061-4.5-4.5v-29.315c0-2.439,2.061-4.5,4.5-4.5h29.315    c2.439,0,4.5,2.061,4.5,4.5V435.991z"/>
	</g>
</g>
<g>
	<g>
		<path d="M303.877,198.824h-29.315c-10.753,0-19.501,8.749-19.501,19.501v29.315c0,10.753,8.749,19.501,19.501,19.501h29.315    c10.753,0,19.501-8.749,19.501-19.501v-29.315C323.379,207.572,314.63,198.824,303.877,198.824z M308.378,247.639    c0,2.439-2.061,4.5-4.5,4.5h-29.315c-2.439,0-4.5-2.061-4.5-4.5v-29.315c0-2.439,2.061-4.5,4.5-4.5h29.315    c2.439,0,4.5,2.061,4.5,4.5V247.639z"/>
	</g>
</g>
<g>
	<g>
		<path d="M289.221,104.447H106.839c-4.143,0-7.5,3.358-7.5,7.5c0,4.142,3.357,7.5,7.5,7.5h182.381c4.143,0,7.5-3.358,7.5-7.5    C296.721,107.806,293.364,104.447,289.221,104.447z"/>
	</g>
</g>
<g>
	<g>
		<path d="M402.936,334.513c-40.418,0-73.301,32.883-73.301,73.301c0,40.418,32.883,73.301,73.301,73.301    c40.418,0,73.301-32.883,73.301-73.301C476.238,367.396,443.355,334.513,402.936,334.513z M402.936,466.115    c-32.147,0-58.301-26.154-58.301-58.301s26.154-58.301,58.301-58.301c32.147,0,58.301,26.154,58.301,58.301    S435.083,466.115,402.936,466.115z"/>
	</g>
</g>
<g>
	<g>
		<path d="M402.936,303.629c-5.309,0-10.527,0.402-15.625,1.172V21.951C387.311,9.848,377.464,0,365.36,0H26.83    C14.726,0,4.878,9.848,4.878,21.951v468.097C4.878,502.153,14.726,512,26.83,512h151.764c4.143,0,7.5-3.358,7.5-7.5    s-3.357-7.5-7.5-7.5H26.83c-3.832,0-6.95-3.118-6.95-6.95V21.951c0-3.832,3.118-6.95,6.95-6.95h338.53    c3.832,0,6.95,3.118,6.95,6.95v286.272c-18.424,5.629-35.663,16.558-48.932,32.233v-25.396c0-12.104-9.848-21.951-21.951-21.951    h-24.414c-12.104,0-21.95,9.848-21.95,21.951v118.48c0,12.104,9.848,21.951,21.95,21.951h24.414c2.809,0,5.538-0.539,8.075-1.547    c9.166,18.471,23.272,33.148,39.626,43.053H213.596c-4.143,0-7.5,3.358-7.5,7.5s3.357,7.5,7.5,7.5H365.36    c4.111,0,8.072-1.16,11.514-3.301c8.333,2.154,17.066,3.301,26.063,3.301c57.448,0,104.185-46.737,104.185-104.185    C507.122,350.365,460.384,303.629,402.936,303.629z M308.378,363.96c-6.227,13.462-9.627,28.434-9.627,43.855    c0,10.863,1.702,21.856,5.077,32.241c-0.76,0.286-1.57,0.436-2.401,0.436h-24.414c-3.832,0-6.949-3.118-6.949-6.95v-118.48    c0-3.832,3.117-6.95,6.949-6.95h24.414c3.832,0,6.95,3.118,6.95,6.95V363.96z M402.936,496.999    c-50.287,0-89.184-41.414-89.184-89.184c0-49.285,40.116-89.184,89.184-89.184c49.176,0,89.184,40.007,89.184,89.184    C492.121,456.992,452.112,496.999,402.936,496.999z"/>
	</g>
</g>
<g>
	<g>
		<path d="M407.725,400.694v-19.369c4.119,0.333,6.236,1.308,10.675,3.521c2.34,1.176,5.045,0.597,6.769-2.319    c1.744-2.971,2.11-6.565-0.551-8.781c-4.201-3.487-11.576-4.583-16.893-4.583v-2.889c0-0.741-0.386-1.389-1.156-1.945    c-0.771-0.555-1.633-0.834-2.586-0.834c-1.028,0-1.908,0.275-2.641,0.826c-0.734,0.55-1.101,1.193-1.101,1.926v3.081    c-12.779,1.687-21.351,8.643-21.351,21.46c0,13.505,10.013,17.792,21.351,22.121v21.9c-5.817-0.703-8.59-2.972-14.087-7.098    c-2.742-2.053-5.414-1.276-7.429,1.547c-0.98,1.38-1.815,3.385-1.815,5.021c0,6.498,10.685,13.571,23.331,13.571v3.11    c0,1.636,1.881,2.777,3.741,2.777c1.716,0,3.742-1.131,3.742-2.751v-3.412c11.07-1.71,20.8-8.715,20.8-23.331    C428.525,410.871,420.102,405.196,407.725,400.694z M401.121,398.274c-6.686-2.672-8.805-4.823-8.805-8.915    c0-4.79,4.054-6.954,8.805-7.704V398.274z M406.844,434.701v-19.149c6.855,3.004,8.255,6.27,8.255,10.126    C415.098,430.804,411.752,433.662,406.844,434.701z"/>
	</g>
</g>
<g>
	<g>
		<path d="M334.014,101.947c4.143,0,7.5-3.358,7.5-7.5V70.534c0-10.753-8.749-19.501-19.501-19.501H70.176    c-10.753,0-19.501,8.749-19.501,19.501v82.826c0,10.753,8.749,19.501,19.501,19.501h251.837    c10.753,0.001,19.501-8.747,19.501-19.5v-23.912c0-4.142-3.357-7.5-7.5-7.5s-7.5,3.358-7.5,7.5v23.912c0,2.439-2.061,4.5-4.5,4.5    H70.176c-2.439,0-4.5-2.061-4.5-4.5V70.534c0-2.439,2.061-4.5,4.5-4.5h251.837c2.439,0,4.5,2.061,4.5,4.5v23.912    C326.514,98.589,329.871,101.947,334.014,101.947z"/>
	</g>
</g>
</svg>
