<svg xmlns="http://www.w3.org/2000/svg" xmlns:xlink="http://www.w3.org/1999/xlink" version="1.1" id="Capa_1" x="0px" y="0px" viewBox="0 0 512 512" style="enable-background:new 0 0 512 512;" xml:space="preserve" width="512px" height="512px">
<g>
	<g>
		<path d="M504.5,448.497h-31.498v-273.27l20.876,7.796c0.058,0.021,0.116,0.036,0.174,0.056c0.121,0.043,0.243,0.083,0.366,0.119    c0.115,0.033,0.23,0.06,0.346,0.088c0.107,0.025,0.214,0.053,0.323,0.073c0.163,0.031,0.325,0.054,0.488,0.075    c0.065,0.008,0.13,0.02,0.196,0.025c0.244,0.024,0.487,0.039,0.729,0.039c0.024,0,0.049-0.006,0.074-0.006    c0.314-0.003,0.623-0.029,0.927-0.07c0.085-0.012,0.168-0.024,0.252-0.039c0.677-0.113,1.32-0.316,1.922-0.599    c0.057-0.026,0.111-0.053,0.167-0.08c0.304-0.151,0.599-0.317,0.878-0.508c0.018-0.012,0.033-0.025,0.051-0.038    c0.255-0.177,0.495-0.372,0.726-0.579c0.063-0.056,0.125-0.111,0.187-0.169c0.231-0.223,0.45-0.456,0.651-0.706    c0.044-0.054,0.083-0.111,0.125-0.167c0.183-0.238,0.351-0.487,0.503-0.748c0.027-0.046,0.058-0.09,0.084-0.137    c0.171-0.306,0.317-0.626,0.445-0.957c0.01-0.025,0.025-0.049,0.035-0.075c0.019-0.051,0.031-0.102,0.049-0.154    c0.05-0.143,0.097-0.288,0.138-0.436c0.03-0.107,0.057-0.212,0.082-0.318c0.029-0.126,0.057-0.251,0.079-0.379    c0.024-0.135,0.045-0.269,0.061-0.403c0.013-0.102,0.024-0.203,0.033-0.307c0.013-0.159,0.021-0.318,0.023-0.477    c0.001-0.05,0.008-0.099,0.008-0.149v-30c0-0.039-0.005-0.076-0.006-0.115c-0.002-0.161-0.012-0.32-0.024-0.48    c-0.007-0.096-0.015-0.192-0.026-0.288c-0.017-0.138-0.038-0.274-0.063-0.41c-0.02-0.115-0.04-0.229-0.065-0.343    c-0.025-0.111-0.056-0.222-0.085-0.332c-0.036-0.131-0.072-0.261-0.114-0.389c-0.03-0.093-0.066-0.184-0.101-0.275    c-0.051-0.137-0.104-0.274-0.162-0.406c-0.039-0.086-0.082-0.171-0.124-0.256c-0.063-0.129-0.126-0.258-0.196-0.382    c-0.053-0.094-0.11-0.184-0.167-0.274c-0.067-0.109-0.135-0.219-0.208-0.324c-0.071-0.104-0.149-0.203-0.227-0.303    c-0.066-0.086-0.133-0.174-0.203-0.258c-0.091-0.107-0.188-0.211-0.285-0.314c-0.066-0.069-0.131-0.141-0.199-0.207    c-0.104-0.103-0.214-0.199-0.324-0.295c-0.073-0.064-0.146-0.128-0.221-0.189c-0.107-0.085-0.218-0.166-0.329-0.246    c-0.091-0.064-0.181-0.13-0.274-0.191c-0.101-0.065-0.203-0.125-0.308-0.187c-0.115-0.067-0.231-0.134-0.352-0.196    c-0.09-0.046-0.182-0.089-0.273-0.131c-0.14-0.065-0.281-0.128-0.425-0.185c-0.039-0.015-0.075-0.034-0.114-0.049L258.122,48.967    c-0.088-0.033-0.177-0.055-0.266-0.084c-0.07-0.023-0.141-0.046-0.212-0.067c-0.324-0.097-0.649-0.179-0.976-0.23    c-0.017-0.003-0.032-0.005-0.049-0.007c-0.327-0.051-0.654-0.07-0.979-0.077c-0.048-0.001-0.093-0.011-0.141-0.011    c-0.066,0-0.132,0.007-0.197,0.009c-0.085,0.002-0.17,0.006-0.254,0.011c-0.153,0.01-0.306,0.023-0.458,0.043    c-0.081,0.01-0.162,0.02-0.243,0.032c-0.148,0.023-0.295,0.052-0.441,0.085c-0.087,0.019-0.174,0.037-0.261,0.059    c-0.126,0.033-0.251,0.071-0.376,0.111c-0.107,0.033-0.214,0.065-0.319,0.104c-0.026,0.01-0.054,0.017-0.08,0.026l-112.36,42.14    c-1.88,0.7-3.37,2.091-4.2,3.91c-0.83,1.83-0.899,3.87-0.189,5.74c1.09,2.91,3.91,4.87,7.02,4.87c0.9,0,1.79-0.16,2.63-0.48    l109.737-41.146l233.495,87.198v13.988l-230.88-86.223c-0.029-0.011-0.059-0.018-0.087-0.027    c-0.141-0.051-0.283-0.093-0.426-0.135c-0.096-0.028-0.19-0.06-0.287-0.084c-0.141-0.035-0.284-0.062-0.428-0.089    c-0.1-0.019-0.198-0.042-0.297-0.056c-0.141-0.021-0.282-0.032-0.424-0.045c-0.103-0.01-0.205-0.023-0.308-0.028    c-0.136-0.007-0.272-0.003-0.41-0.003c-0.107,0.001-0.216-0.002-0.323,0.003c-0.127,0.007-0.254,0.022-0.381,0.035    c-0.118,0.012-0.236,0.021-0.353,0.038c-0.113,0.017-0.226,0.042-0.339,0.064c-0.131,0.025-0.262,0.05-0.391,0.082    c-0.101,0.025-0.199,0.058-0.299,0.088c-0.142,0.041-0.282,0.083-0.42,0.133c-0.028,0.011-0.057,0.017-0.085,0.027L22.998,165.174    v-13.98l94.682-35.514c1.88-0.7,3.37-2.09,4.2-3.91c0.83-1.83,0.9-3.87,0.189-5.74c-1.09-2.909-3.909-4.869-7.02-4.869    c-0.9,0-1.78,0.159-2.63,0.479l-99.55,37.33c-0.046,0.017-0.088,0.04-0.132,0.058c-0.131,0.052-0.258,0.108-0.385,0.166    c-0.095,0.045-0.189,0.088-0.281,0.136c-0.12,0.062-0.237,0.128-0.354,0.196c-0.102,0.059-0.201,0.118-0.298,0.181    c-0.096,0.063-0.189,0.128-0.281,0.194c-0.111,0.079-0.222,0.16-0.328,0.245c-0.073,0.059-0.143,0.119-0.214,0.181    c-0.115,0.1-0.229,0.201-0.338,0.308c-0.061,0.059-0.117,0.119-0.175,0.18c-0.108,0.113-0.215,0.227-0.316,0.347    c-0.059,0.07-0.114,0.143-0.17,0.214c-0.09,0.114-0.179,0.229-0.262,0.349c-0.063,0.092-0.121,0.187-0.182,0.281    c-0.066,0.105-0.134,0.211-0.195,0.321c-0.063,0.114-0.121,0.23-0.18,0.348c-0.035,0.073-0.077,0.143-0.111,0.217    c-0.014,0.029-0.022,0.06-0.035,0.088c-0.054,0.122-0.101,0.247-0.148,0.373c-0.041,0.108-0.084,0.216-0.119,0.326    c-0.034,0.104-0.062,0.21-0.091,0.315c-0.04,0.143-0.08,0.285-0.111,0.43c-0.014,0.068-0.024,0.137-0.037,0.205    c-0.036,0.189-0.066,0.378-0.087,0.568c-0.004,0.034-0.006,0.068-0.009,0.104c-0.022,0.224-0.033,0.448-0.034,0.673    c0,0.008-0.001,0.017-0.001,0.024v30c0,0.055,0.007,0.107,0.008,0.162c0.004,0.154,0.011,0.309,0.023,0.463    c0.009,0.107,0.022,0.215,0.035,0.322c0.017,0.129,0.035,0.259,0.059,0.389c0.024,0.132,0.053,0.262,0.083,0.393    c0.024,0.102,0.05,0.205,0.079,0.307c0.043,0.151,0.09,0.299,0.142,0.446c0.019,0.051,0.03,0.102,0.049,0.152    c0.01,0.025,0.023,0.047,0.033,0.071c0.128,0.33,0.275,0.65,0.446,0.955c0.027,0.051,0.059,0.097,0.088,0.145    c0.152,0.257,0.318,0.503,0.498,0.739c0.043,0.056,0.083,0.114,0.127,0.17c0.2,0.247,0.418,0.479,0.647,0.699    c0.064,0.061,0.13,0.118,0.195,0.177c0.228,0.204,0.465,0.396,0.716,0.57c0.021,0.014,0.038,0.03,0.058,0.043    c0.276,0.188,0.57,0.352,0.872,0.503c0.058,0.029,0.115,0.057,0.175,0.084c0.6,0.28,1.241,0.482,1.914,0.596    c0.085,0.015,0.169,0.027,0.255,0.039c0.303,0.041,0.61,0.067,0.925,0.07c0.024,0,0.049,0.006,0.074,0.006    c0.243,0,0.486-0.015,0.731-0.039c0.064-0.006,0.128-0.018,0.193-0.025c0.164-0.021,0.328-0.044,0.493-0.076    c0.108-0.021,0.215-0.047,0.321-0.072c0.116-0.028,0.231-0.056,0.348-0.09c0.126-0.036,0.249-0.078,0.372-0.121    c0.058-0.02,0.116-0.034,0.174-0.056l19.87-7.451v272.929H7.5c-4.143,0-7.5,3.357-7.5,7.5s3.357,7.5,7.5,7.5h37.848    c0.052,0.001,0.102,0.008,0.154,0.008c0.053,0,0.103-0.007,0.154-0.008h39.623c0.071,0.002,0.141,0.011,0.213,0.011h60.006h0.004    h60.006c4.143,0,7.5-3.357,7.5-7.5v-60.011c0-4.143-3.357-7.5-7.5-7.5h-22.5v-52.505c0-4.143-3.357-7.5-7.5-7.5h-22.506v-52.501    c0-4.142-3.357-7.5-7.5-7.5h-52.51v-24.499h325.014v24.499H365.5c-4.143,0-7.5,3.358-7.5,7.5v52.501h-22.506    c-4.143,0-7.5,3.357-7.5,7.5v52.505h-22.5c-4.143,0-7.5,3.357-7.5,7.5v60.011c0,4.143,3.357,7.5,7.5,7.5H365.5h0.004h60.006    c0.072,0,0.142-0.009,0.213-0.011h39.625c0.052,0.001,0.102,0.008,0.154,0.008c0.053,0,0.102-0.007,0.154-0.008H504.5    c4.143,0,7.5-3.357,7.5-7.5C512,451.854,508.643,448.497,504.5,448.497z M358,448.508h-45.006v-45.011h22.384    c0.039,0,0.077,0.006,0.116,0.006H358V448.508z M365.504,388.497H365.5h-22.506v-45.005h22.313c0.064,0.002,0.128,0.01,0.193,0.01    h22.504v44.995H365.504z M418.006,448.508h-45.002v-45.005h0h22.5c0.039,0,0.077-0.006,0.116-0.006h22.386V448.508z     M418.006,388.497h-15.002v-44.995h15.002V388.497z M418.006,328.502h-22.309c-0.064-0.002-0.128-0.01-0.193-0.01H373v-45.001    h45.006V328.502z M137.998,448.508H92.992v-45.011h22.39c0.039,0,0.077,0.006,0.116,0.006h22.5V448.508z M92.992,388.497v-44.995    h15.006v44.995H92.992z M175.624,403.496h22.384v45.011h-45.006v-45.005h22.506C175.547,403.502,175.585,403.496,175.624,403.496z     M145.695,343.492h22.313v45.005h-22.506h-0.004h-22.5v-44.995h22.504C145.567,343.502,145.631,343.494,145.695,343.492z     M138.002,283.491v45.001h-22.504c-0.065,0-0.129,0.008-0.193,0.01H92.992v-45.011H138.002z M418.006,228.992H92.992v-15.497    h325.014V228.992z M458.002,448.497H433.01v-52.5c0-0.026-0.004-0.051-0.004-0.077v-59.841c0-0.025,0.004-0.051,0.004-0.077    v-60.011c0-0.026-0.004-0.051-0.004-0.077v-69.919c0-4.143-3.357-7.5-7.5-7.5H85.492c-4.143,0-7.5,3.357-7.5,7.5v69.996v60.011    v59.995v52.5h-24.99V169.942l202.502-75.939l202.498,75.623V448.497z"/>
	</g>
</g>
</svg>
