<svg xmlns="http://www.w3.org/2000/svg" xmlns:xlink="http://www.w3.org/1999/xlink" version="1.1" id="Capa_1" x="0px" y="0px" viewBox="0 0 512 512" style="enable-background:new 0 0 512 512;" xml:space="preserve" width="512px" height="512px">
<g>
	<g>
		<path d="M504.414,433.201h-17.022V150.052c0-22.7-18.179-41.169-40.525-41.169h-21.061V38.866    c0-21.254-17.291-38.545-38.545-38.545H130.125c-20.013,0-36.295,16.281-36.295,36.295v35.199c0,4.19,3.396,7.586,7.586,7.586    s7.586-3.396,7.586-7.586V36.616c0-11.647,9.476-21.123,21.123-21.123H356.64c-4.965,6.489-7.924,14.59-7.924,23.373v76.657    c-0.039,0.311-0.065,0.625-0.065,0.946s0.026,0.636,0.065,0.946v35.019c-0.039,0.311-0.065,0.625-0.065,0.946    c0,0.321,0.026,0.636,0.065,0.946v184.644c0,11.647-9.476,21.123-21.123,21.123H130.125c-11.647,0-21.123-9.476-21.123-21.123    V101.598c0-4.19-3.396-7.586-7.586-7.586s-7.586,3.396-7.586,7.586v7.286H65.132c-22.345,0-40.524,18.468-40.524,41.169v254.466    c0,4.19,3.396,7.586,7.586,7.586s7.586-3.396,7.586-7.586V150.052c0-14.335,11.373-25.997,25.352-25.997H93.83v21.74H69.614    c-4.19,0-7.586,3.396-7.586,7.586v251.137c0,4.19,3.396,7.586,7.586,7.586h376.357c4.19,0,7.586-3.396,7.586-7.586V245.268    c0-4.19-3.396-7.586-7.586-7.586s-7.586,3.396-7.586,7.586v151.666H77.2V160.968h16.63v178.004    c0,20.013,16.281,36.295,36.295,36.295h197.468c20.013,0,36.295-16.282,36.295-36.295V160.968h74.498v39.698    c0,4.19,3.396,7.586,7.586,7.586s7.586-3.396,7.586-7.586v-47.284c0-4.19-3.396-7.586-7.586-7.586h-82.083v-21.74h54.324    c0.003,0,0.006,0,0.01,0c0.003,0,0.006,0,0.01,0h28.637c13.98,0,25.353,11.662,25.353,25.997v283.149H7.586    c-4.19,0-7.586,3.396-7.586,7.586v15.867c0,30.341,24.684,55.025,55.025,55.025h401.95c30.341,0,55.025-24.684,55.025-55.025    v-15.867C512,436.597,508.604,433.201,504.414,433.201z M410.635,108.883h-46.747V38.866c0-12.888,10.485-23.373,23.374-23.373    c12.887-0.001,23.373,10.484,23.373,23.372V108.883z M496.829,456.653h-0.001c0,21.975-17.878,39.853-39.853,39.853H55.025    c-21.975,0-39.853-17.878-39.853-39.853v-8.281h462.941c0.545,0.125,1.111,0.197,1.694,0.197s1.148-0.072,1.694-0.197h15.328    V456.653z"/>
	</g>
</g>
<g>
	<g>
		<path d="M197.58,33.576h-49c-11.82,0-21.437,9.617-21.437,21.437v49c0,11.821,9.617,21.437,21.437,21.437h49    c11.82,0,21.437-9.616,21.437-21.437v-49C219.017,43.193,209.401,33.576,197.58,33.576z M203.845,104.015    c0,3.455-2.81,6.265-6.265,6.265h-49c-3.455,0-6.265-2.81-6.265-6.265v-49c0-3.455,2.81-6.265,6.265-6.265h49    c3.455,0,6.265,2.811,6.265,6.265V104.015z"/>
	</g>
</g>
<g>
	<g>
		<path d="M190.747,66.45c-2.962-2.962-7.766-2.962-10.728,0l-9.868,9.868l-2.198-2.198c-2.962-2.962-7.766-2.962-10.728,0    c-2.963,2.962-2.963,7.766,0,10.728l7.562,7.562c1.481,1.481,3.423,2.222,5.364,2.222s3.883-0.741,5.364-2.222l15.232-15.232    C193.71,74.216,193.71,69.413,190.747,66.45z"/>
	</g>
</g>
<g>
	<g>
		<path d="M197.58,141.856h-49c-11.82,0-21.437,9.617-21.437,21.437v48.999c0,11.82,9.616,21.437,21.437,21.437h49    c11.82,0,21.437-9.617,21.437-21.437v-48.999C219.017,151.473,209.401,141.856,197.58,141.856z M203.845,212.292    c0,3.455-2.81,6.265-6.265,6.265h-49c-3.455,0-6.265-2.811-6.265-6.265v-48.999c0-3.455,2.81-6.265,6.265-6.265h49    c3.455,0,6.265,2.811,6.265,6.265V212.292z"/>
	</g>
</g>
<g>
	<g>
		<path d="M197.58,250.135h-49c-11.82,0-21.437,9.617-21.437,21.437v48.999c0,11.82,9.616,21.437,21.437,21.437h49    c11.82,0,21.437-9.617,21.437-21.437v-48.999C219.017,259.752,209.401,250.135,197.58,250.135z M203.845,320.571    c0,3.455-2.81,6.265-6.265,6.265h-49c-3.455,0-6.265-2.811-6.265-6.265v-48.999c0-3.455,2.81-6.265,6.265-6.265h49    c3.455,0,6.265,2.811,6.265,6.265V320.571z"/>
	</g>
</g>
<g>
	<g>
		<path d="M190.747,283.008c-2.962-2.962-7.766-2.962-10.728,0l-9.868,9.868l-2.198-2.198c-2.963-2.962-7.766-2.962-10.728,0    c-2.962,2.963-2.963,7.766,0,10.728l7.562,7.562c1.423,1.423,3.352,2.222,5.364,2.222c2.012,0,3.942-0.799,5.364-2.222    l15.232-15.232C193.71,290.774,193.71,285.97,190.747,283.008z"/>
	</g>
</g>
<g>
	<g>
		<path d="M183.534,186.791l7.638-7.638c2.963-2.962,2.963-7.766,0-10.728c-2.962-2.962-7.766-2.962-10.728,0l-7.638,7.638    l-7.638-7.638c-2.962-2.962-7.766-2.962-10.728,0c-2.963,2.962-2.963,7.766,0,10.728l7.638,7.638l-7.638,7.638    c-2.963,2.962-2.963,7.766,0,10.728c1.481,1.481,3.423,2.222,5.364,2.222s3.883-0.741,5.364-2.222l7.638-7.638l7.638,7.638    c1.481,1.481,3.423,2.222,5.364,2.222c1.941,0,3.883-0.741,5.364-2.222c2.963-2.962,2.963-7.766,0-10.728L183.534,186.791z"/>
	</g>
</g>
<g>
	<g>
		<path d="M318.562,54.818H240.04c-4.19,0-7.586,3.396-7.586,7.586c0,4.19,3.397,7.586,7.586,7.586h78.522    c4.19,0,7.586-3.396,7.586-7.586S322.752,54.818,318.562,54.818z"/>
	</g>
</g>
<g>
	<g>
		<path d="M289.659,86.426H240.04c-4.19,0-7.586,3.396-7.586,7.586c0,4.19,3.397,7.586,7.586,7.586h49.619    c4.19,0,7.586-3.396,7.586-7.586C297.245,89.822,293.849,86.426,289.659,86.426z"/>
	</g>
</g>
<g>
	<g>
		<path d="M318.562,163.4H240.04c-4.19,0-7.586,3.396-7.586,7.586s3.397,7.586,7.586,7.586h78.522c4.19,0,7.586-3.396,7.586-7.586    S322.752,163.4,318.562,163.4z"/>
	</g>
</g>
<g>
	<g>
		<path d="M289.659,195.008H240.04c-4.19,0-7.586,3.396-7.586,7.586s3.397,7.586,7.586,7.586h49.619c4.19,0,7.586-3.396,7.586-7.586    S293.849,195.008,289.659,195.008z"/>
	</g>
</g>
<g>
	<g>
		<path d="M318.562,271.363H240.04c-4.19,0-7.586,3.396-7.586,7.586s3.397,7.586,7.586,7.586h78.522c4.19,0,7.586-3.396,7.586-7.586    S322.752,271.363,318.562,271.363z"/>
	</g>
</g>
<g>
	<g>
		<path d="M289.659,302.971H240.04c-4.19,0-7.586,3.396-7.586,7.586s3.397,7.586,7.586,7.586h49.619c4.19,0,7.586-3.396,7.586-7.586    S293.849,302.971,289.659,302.971z"/>
	</g>
</g>
</svg>
