<svg xmlns="http://www.w3.org/2000/svg" xmlns:xlink="http://www.w3.org/1999/xlink" version="1.1" id="Capa_1" x="0px" y="0px" viewBox="0 0 512.001 512.001" style="enable-background:new 0 0 512.001 512.001;" xml:space="preserve" width="512px" height="512px">
<g>
	<g>
		<path d="M504.313,378.767H108.414c-4.246,0-7.687,3.442-7.687,7.687c0,4.245,3.441,7.687,7.687,7.687h388.213v8.173    c0,21.909-17.824,39.733-39.733,39.733H55.107c-21.909,0-39.733-17.824-39.733-39.734v-8.173h60.584    c4.246,0,7.687-3.442,7.687-7.687c0-4.245-3.441-7.687-7.687-7.687H39.971V95.837c0-14.272,11.322-25.882,25.238-25.882H446.79    c13.916,0,25.238,11.611,25.238,25.882V354.24c0,4.245,3.441,7.687,7.687,7.687c4.246,0,7.687-3.442,7.687-7.687V95.837    c0-22.749-18.218-41.256-40.612-41.256H65.21c-22.394,0-40.612,18.507-40.612,41.256v282.93H7.687    c-4.246,0-7.687,3.442-7.687,7.687v15.859c0,30.386,24.721,55.107,55.107,55.107h401.787c30.386,0,55.107-24.721,55.107-55.107    v-15.86C512,382.209,508.559,378.767,504.313,378.767z"/>
	</g>
</g>
<g>
	<g>
		<path d="M445.894,91.478H132.499c-4.246,0-7.687,3.442-7.687,7.687s3.441,7.687,7.687,7.687h305.708v235.662H77.376V106.852    h28.219c4.246,0,7.687-3.442,7.687-7.687s-3.441-7.687-7.687-7.687H69.69c-4.246,0-7.687,3.442-7.687,7.687V350.2    c0,4.245,3.441,7.687,7.687,7.687h376.204c4.246,0,7.687-3.442,7.687-7.687V99.165C453.581,94.92,450.14,91.478,445.894,91.478z"/>
	</g>
</g>
<g>
	<g>
		<path d="M352.332,240.145h-36.104c0.097-1.996,0.163-4,0.163-6.018c0-3.886-0.19-7.75-0.553-11.572    c19.662-3.397,34.67-20.564,34.67-41.182v-6.893c0-4.245-3.441-7.687-7.687-7.687c-4.246,0-7.687,3.442-7.687,7.687v6.893    c0,13.082-9.556,23.969-22.053,26.061c-1.326-2.393-3.866-3.965-6.719-3.965h-0.72c-2.93-12.184-10.17-22.523-19.969-29.452    v-5.429c0-3.315,2.696-6.012,6.011-6.012c11.791,0,21.385-9.593,21.385-21.385v-9.869c0-4.245-3.441-7.687-7.687-7.687    c-4.246,0-7.687,3.442-7.687,7.687v9.869c0,3.314-2.696,6.011-6.011,6.011c-11.148,0-20.318,8.578-21.288,19.478    c-4.481-1.282-9.213-1.967-14.1-1.967c-4.716,0-9.284,0.646-13.626,1.843c-1.028-10.842-10.176-19.353-21.282-19.353    c-3.315,0-6.012-2.697-6.012-6.011v-9.869c0-4.245-3.441-7.687-7.687-7.687c-4.246,0-7.687,3.442-7.687,7.687v9.869    c0,11.792,9.593,21.385,21.386,21.385c3.315,0,6.011,2.697,6.011,6.012v5.085c-10.045,6.928-17.471,17.412-20.45,29.796h-1.309    c-2.744,0-5.204,1.452-6.567,3.694c-11.811-2.637-20.669-13.196-20.669-25.79v-6.893c0-4.245-3.441-7.687-7.687-7.687    c-4.246,0-7.687,3.442-7.687,7.687v6.893c0,20.087,14.244,36.906,33.16,40.9c-0.38,3.914-0.578,7.873-0.578,11.854    c0,2.019,0.066,4.023,0.163,6.018H159.67c-4.246-0.001-7.687,3.441-7.687,7.686s3.441,7.687,7.687,7.687h37.837    c1.149,6.391,2.807,12.553,4.956,18.374c-17.861,4.754-31.061,21.061-31.061,40.398v6.893c0,4.245,3.441,7.687,7.687,7.687    c4.246,0,7.687-3.442,7.687-7.687v-6.893c0-13.186,9.706-24.146,22.348-26.114c1.032,1.793,2.107,3.546,3.249,5.23    c11.429,16.858,26.923,26.142,43.629,26.142c0.058,0,0.116-0.006,0.174-0.006c0.041,0.001,0.08,0.006,0.12,0.006    c0.22,0,0.436-0.015,0.651-0.033c16.343-0.345,31.471-9.57,42.683-26.109c1.157-1.707,2.247-3.484,3.291-5.303    c12.906,1.734,22.894,12.813,22.894,26.187v6.893c0,4.245,3.441,7.687,7.687,7.687c4.246,0,7.687-3.442,7.687-7.687v-6.893    c0-19.53-13.464-35.971-31.596-40.538c2.124-5.78,3.762-11.895,4.902-18.234h37.837c4.246,0,7.687-3.442,7.687-7.687    S356.578,240.145,352.332,240.145z M238.33,184.948c0.381-0.178,0.748-0.38,1.091-0.616c5.025-2.711,10.774-4.245,16.873-4.245    c15.291,0,28.401,9.604,33.324,23.382h-66.647C225.787,195.59,231.281,189.081,238.33,184.948z M286.903,284.781    c-6.483,9.561-14.426,15.825-22.922,18.251V237.92c0-4.245-3.441-7.687-7.687-7.687c-4.246,0-7.687,3.442-7.687,7.687v65.268    c-8.718-2.3-16.879-8.626-23.511-18.407c-9.1-13.423-14.111-31.412-14.111-50.654c0-5.167,0.367-10.286,1.095-15.284h87.84    c0.728,4.998,1.095,10.117,1.095,15.284C301.015,253.369,296.003,271.358,286.903,284.781z"/>
	</g>
</g>
</svg>
