<svg xmlns="http://www.w3.org/2000/svg" xmlns:xlink="http://www.w3.org/1999/xlink" version="1.1" id="Capa_1" x="0px" y="0px" viewBox="0 0 512 512" style="enable-background:new 0 0 512 512;" xml:space="preserve" width="512px" height="512px">
<g>
	<g>
		<path d="M459.113,389.986c0-10.773-8.764-19.538-19.538-19.538h-123.98c-1.819,0-3.573,0.268-5.244,0.735    c0.467-1.672,0.735-3.426,0.735-5.244v-25.405c0-4.536-1.567-8.704-4.17-12.024c2.602-3.319,4.169-7.488,4.169-12.024v-25.406    c0-10.773-8.765-19.538-19.538-19.538h-44.456c-4.15,0-7.515,3.365-7.515,7.515c0,4.15,3.365,7.515,7.515,7.515h44.456    c2.444,0,4.509,2.065,4.509,4.509v25.405c0,2.444-2.065,4.509-4.509,4.509H167.566c-2.444,0-4.509-2.065-4.509-4.509v-25.405    c0-2.444,2.065-4.509,4.509-4.509h44.456c4.15,0,7.515-3.365,7.515-7.515c0-4.15-3.365-7.515-7.515-7.515h-44.456    c-1.819,0-3.573,0.269-5.244,0.735c0.467-1.672,0.735-3.426,0.735-5.244v-25.405c0-4.536-1.567-8.704-4.169-12.024    c2.603-3.32,4.169-7.488,4.169-12.024v-25.405c0-10.773-8.765-19.538-19.538-19.538H19.538C8.765,172.639,0,181.404,0,192.177    v25.405c0,4.536,1.567,8.704,4.169,12.024C1.566,232.925,0,237.093,0,241.629v25.405c0,4.536,1.567,8.704,4.169,12.024    C1.567,282.377,0,286.545,0,291.081v25.405c0,4.536,1.567,8.704,4.169,12.024C1.566,331.829,0,335.997,0,340.533v25.405    c0,4.536,1.567,8.704,4.169,12.024C1.566,381.281,0,385.449,0,389.985v25.405c0,4.536,1.567,8.704,4.169,12.024    C1.567,430.734,0,434.903,0,439.438v25.405c0,10.773,8.765,19.538,19.538,19.538h123.981c4.536,0,8.704-1.567,12.024-4.169    c3.32,2.603,7.488,4.169,12.024,4.169h123.981c4.536,0,8.704-1.567,12.023-4.169c3.32,2.603,7.488,4.169,12.024,4.169h123.981    c10.773,0,19.538-8.765,19.538-19.538v-25.405c0-4.536-1.567-8.704-4.169-12.024c2.603-3.319,4.169-7.488,4.169-12.024V389.986z     M148.028,464.844c0,2.444-2.064,4.509-4.509,4.509H19.538c-2.444,0-4.509-2.065-4.509-4.509v-25.405    c0-2.444,2.065-4.509,4.509-4.509h123.981c2.444,0,4.509,2.065,4.509,4.509V464.844z M148.028,415.391    c0,2.444-2.065,4.509-4.509,4.509H19.538c-2.444,0-4.509-2.064-4.509-4.509v-25.405c0-2.444,2.065-4.509,4.509-4.509h123.981    c2.444,0,4.509,2.065,4.509,4.509V415.391z M148.028,365.939c0,2.444-2.065,4.509-4.509,4.509H19.538    c-2.444,0-4.509-2.065-4.509-4.509v-25.405c0-2.444,2.065-4.509,4.509-4.509h123.981c2.444,0,4.509,2.065,4.509,4.509V365.939z     M148.028,316.486c0,2.444-2.065,4.509-4.509,4.509H19.538c-2.444,0.001-4.509-2.064-4.509-4.508v-25.406    c0-2.444,2.065-4.509,4.509-4.509h123.981c2.444,0,4.509,2.065,4.509,4.509V316.486z M148.028,267.034    c0,2.444-2.065,4.509-4.509,4.509H19.538c-2.444,0-4.509-2.064-4.509-4.509v-25.405c0-2.444,2.065-4.509,4.509-4.509h123.981    c2.444,0,4.509,2.065,4.509,4.509V267.034z M148.028,217.581c0,2.444-2.065,4.509-4.509,4.509H19.538    c-2.444,0-4.509-2.065-4.509-4.509v-25.405c0-2.444,2.065-4.509,4.509-4.509h123.981c2.444,0,4.509,2.065,4.509,4.509V217.581z     M296.056,464.844c0.001,2.444-2.064,4.509-4.508,4.509H167.566c-2.444,0-4.509-2.065-4.509-4.509v-25.405    c0-2.444,2.065-4.509,4.509-4.509h123.981c2.444,0,4.509,2.065,4.509,4.509V464.844z M296.056,415.391    c0,2.444-2.065,4.509-4.509,4.509H167.566c-2.444,0-4.509-2.064-4.509-4.509v-25.405c0-2.444,2.065-4.509,4.509-4.509h123.981    c2.444,0,4.509,2.065,4.509,4.509V415.391z M296.056,365.939c0,2.444-2.065,4.509-4.509,4.509H167.566    c-2.444,0-4.509-2.065-4.509-4.509v-25.405c0-2.444,2.065-4.509,4.509-4.509h123.981c2.445,0,4.509,2.065,4.509,4.509V365.939z     M444.085,464.844h-0.001c0,2.444-2.065,4.509-4.509,4.509h-123.98c-2.444,0-4.509-2.065-4.509-4.509v-25.405    c0-2.444,2.065-4.509,4.509-4.509h123.981c2.444,0,4.509,2.065,4.509,4.509V464.844z M444.085,415.391    c0,2.444-2.065,4.509-4.509,4.509H315.595c-2.444,0-4.509-2.065-4.509-4.509v-25.405c0-2.444,2.064-4.509,4.509-4.509h123.981    c2.444,0,4.509,2.065,4.509,4.509V415.391z"/>
	</g>
</g>
<g>
	<g>
		<path d="M313.674,217.46l-5.331-31.816c-0.686-4.092-4.559-6.855-8.654-6.169c-4.093,0.686-6.855,4.56-6.169,8.654l2.359,14.076    L38.764,28.904c-3.441-2.32-8.111-1.41-10.431,2.031c-2.32,3.442-1.41,8.113,2.032,10.432l256.595,172.951l-13.755,2.305    c-4.093,0.686-6.855,4.56-6.17,8.653c0.615,3.673,3.798,6.274,7.403,6.274c0.412,0,0.831-0.034,1.25-0.104l31.816-5.331    c1.966-0.33,3.72-1.426,4.878-3.049C313.538,221.442,314.003,219.426,313.674,217.46z"/>
	</g>
</g>
<g>
	<g>
		<path d="M504.381,269.523c-3.991-1.133-8.148,1.183-9.282,5.175c-9.038,31.815-38.463,54.036-71.557,54.036    c-41.025,0-74.403-33.376-74.403-74.402c0-41.025,33.377-74.402,74.403-74.402c36.352,0,67.957,27.043,73.516,62.904    c0.636,4.101,4.479,6.909,8.578,6.275c4.101-0.636,6.911-4.476,6.275-8.578c-6.677-43.072-43.934-75.631-88.368-75.631    c-49.313,0-89.432,40.119-89.432,89.431c0,49.313,40.12,89.431,89.432,89.431c39.779,0,75.149-26.712,86.013-64.958    C510.689,274.812,508.373,270.657,504.381,269.523z"/>
	</g>
</g>
<g>
	<g>
		<path d="M423.055,196.197c-32.056,0-58.135,26.079-58.135,58.134c0,32.055,26.079,58.134,58.135,58.134    s58.134-26.078,58.134-58.134C481.189,222.276,455.111,196.197,423.055,196.197z M423.056,297.436    c-23.769,0-43.105-19.337-43.105-43.104c0-23.768,19.337-43.104,43.105-43.104c23.768,0,43.104,19.337,43.104,43.104    S446.822,297.436,423.056,297.436z"/>
	</g>
</g>
<g>
	<g>
		<path d="M426.737,248.855v-14.9c3.163,0.254,4.799,1.005,8.212,2.709c1.713,0.861,3.841,0.532,5.206-1.785    c1.104-1.876,1.843-4.869-0.423-6.754c-3.225-2.677-8.89-3.526-12.997-3.526v-2.222c0-1.266-1.565-2.138-2.878-2.138    c-1.453,0-2.879,0.885-2.879,2.116v2.371c-9.792,1.291-16.425,6.556-16.425,16.509c0,10.195,7.37,13.561,16.425,17.017V275.1    c-4.482-0.54-6.622-2.298-10.836-5.461c-2.106-1.578-4.166-0.981-5.715,1.19c-1.982,2.791-1.706,5.226-0.042,7.471    c3.195,4.31,10.146,6.832,16.594,6.832v2.394c0,1.287,1.486,2.136,2.879,2.136c1.313,0,2.878-0.864,2.878-2.116v-2.624    c8.551-1.322,16.001-6.733,16.001-17.948C442.738,256.695,436.277,252.325,426.737,248.855z M421.658,246.993    c-5.088-2.033-6.773-3.677-6.773-6.857c0-3.685,3.118-5.349,6.773-5.927V246.993z M426.061,275.016v-14.731    c5.267,2.307,6.349,4.818,6.349,7.788C432.41,271.98,429.883,274.207,426.061,275.016z"/>
	</g>
</g>
</svg>
