<svg xmlns="http://www.w3.org/2000/svg" xmlns:xlink="http://www.w3.org/1999/xlink" version="1.1" id="Capa_1" x="0px" y="0px" viewBox="0 0 512 512" style="enable-background:new 0 0 512 512;" xml:space="preserve" width="512px" height="512px">
<g>
	<g>
		<path d="M510.085,253.684l-40.079-70.329c7.966-13.745,12.532-29.696,12.532-46.695c0-11.396-2.032-22.49-6.041-33.052    l13.606-14.027c9.299-9.586,9.068-24.87-0.521-34.17c-9.839-9.543-25.1-8.831-34.17,0.521l-7.739,7.979    c-11.507-9.273-25.032-15.7-39.527-18.706c-4.052-0.839-8.025,1.765-8.867,5.82c-0.841,4.056,1.765,8.026,5.82,8.867    c11.706,2.428,22.665,7.51,32.084,14.832l-49.922,51.466c-11.465-11.465-7.224-7.223-18.677-18.677    c-10.145-10.143-26.785-9.268-35.831,1.833c-7.728,9.482-7.176,23.508,1.656,32.342l36.026,36.024    c9.771,9.776,25.288,9.17,34.433-0.262l59.843-61.694c1.879,6.772,2.826,13.766,2.826,20.903    c0,43.281-35.229,78.416-78.416,78.416c-43.343,0-78.416-35.32-78.416-78.416c0-37.005,26.258-69.296,62.436-76.782    c4.057-0.84,6.664-4.809,5.825-8.864c-0.84-4.058-4.813-6.662-8.864-5.825c-43.108,8.921-74.397,47.391-74.397,91.472    c0,6.961,0.772,13.745,2.223,20.275c-4.621,0-219.319,0-226.702,0c-8.743,0-16.863,4.719-21.192,12.314l-48.12,84.434    c-5.48,9.618,1.455,21.574,12.537,21.574h39.457V444.54c0,12.366,10.061,22.428,22.428,22.428H256h179.663    c12.366,0,22.427-10.062,22.427-22.428v-72.588c0-4.143-3.357-7.5-7.5-7.5s-7.5,3.357-7.5,7.5v72.588    c0,4.096-3.332,7.428-7.427,7.428H263.5V192.746l41.271,72.417c3.549,6.228,10.206,10.096,17.373,10.096h120.947v61.694    c0,4.143,3.357,7.5,7.5,7.5s7.5-3.357,7.5-7.5v-61.694h39.458c5.2,0,9.863-2.685,12.477-7.181    C512.638,263.581,512.66,258.201,510.085,253.684z M15.433,260.258l47.632-83.579c1.667-2.925,4.795-4.742,8.161-4.742h171.867    l-48.897,85.799v0.001c-0.886,1.555-2.549,2.521-4.34,2.521C184.971,260.258,19.361,260.258,15.433,260.258z M248.5,451.969    H76.337c-4.095,0-7.427-3.332-7.427-7.428V275.258h120.947c7.167,0,13.824-3.868,17.373-10.095l41.271-72.417V451.969z     M394.102,167.008c-3.601,3.713-9.484,3.677-13.058,0.099c-22.097-22.096-13.929-13.928-36.026-36.026    c-3.55-3.55-3.592-9.368,0-12.96c3.572-3.574,9.39-3.572,12.96,0l24.062,24.062c2.963,2.961,7.772,2.923,10.688-0.082    c8.724-8.994,62.17-64.094,73.452-75.725c3.517-3.628,9.313-3.735,12.958-0.197c3.628,3.519,3.733,9.314,0.197,12.959    C468.814,89.986,404.963,155.811,394.102,167.008z M322.143,260.258c-1.791,0-3.454-0.967-4.34-2.522l-48.897-85.799h33.716    c14.341,35.118,48.752,58.529,87.471,58.128c27.172-0.276,52.782-12.247,70.384-33.13l36.089,63.324    C494.863,260.258,325.792,260.258,322.143,260.258z"/>
	</g>
</g>
</svg>
