<svg xmlns="http://www.w3.org/2000/svg" xmlns:xlink="http://www.w3.org/1999/xlink" version="1.1" id="Capa_1" x="0px" y="0px" viewBox="0 0 512 512" style="enable-background:new 0 0 512 512;" xml:space="preserve" width="512px" height="512px">
<g>
	<g>
		<path d="M323.101,337.25c0-21.928-10.656-42.223-28.266-54.72c3.554-6.436,5.542-13.774,5.542-21.449    c0-17.499-10.336-33.413-26.334-40.542c-2.319-1.032-5.005-0.822-7.136,0.56c-2.131,1.384-3.417,3.751-3.417,6.291v26.749h-14.979    v-26.749c0-2.54-1.286-4.907-3.417-6.291c-2.13-1.384-4.817-1.593-7.136-0.56c-15.998,7.129-26.334,23.043-26.334,40.542    c0,7.639,1.992,14.986,5.561,21.437c-17.618,12.498-28.285,32.812-28.285,54.733c0,26.576,15.722,50.516,39.655,61.242    l-0.388,8.681c-0.343,7.671,2.391,14.95,7.697,20.5c5.307,5.549,12.458,8.604,20.136,8.604c7.714,0,14.889-3.08,20.201-8.674    c5.312-5.594,8.02-12.917,7.623-20.62l-0.436-8.466C307.357,387.805,323.101,363.86,323.101,337.25z M229.291,381.997    c-15.512-9.271-25.392-26.18-25.392-44.745c0.001-17.311,8.565-33.338,22.667-42.999c1.985,1.766,4.128,3.373,6.432,4.772    L229.291,381.997z M267.58,288.086c-2.884,1.238-4.691,4.143-4.53,7.276l5.793,112.395c0.184,3.557-1.066,6.937-3.518,9.519    c-2.453,2.582-5.764,4.004-9.325,4.004c-3.544,0-6.845-1.411-9.295-3.972c-2.449-2.562-3.711-5.922-3.553-9.463l0.627-14.047    c0-0.011,0.001-0.022,0.002-0.033l4.413-98.795c0.136-3.055-1.595-5.887-4.377-7.157c-10.445-4.771-17.194-15.263-17.194-26.729    c0.001-7.041,2.528-13.692,6.888-18.887v13.715c0,7.294,5.934,13.228,13.228,13.228h18.522c7.294,0,13.228-5.934,13.228-13.228    v-13.715c4.36,5.195,6.887,11.847,6.887,18.885C285.376,272.843,278.391,283.442,267.58,288.086z M282.541,382.099l-4.26-82.635    c2.585-1.5,4.984-3.244,7.179-5.192c14.088,9.663,22.64,25.668,22.64,42.979C308.1,355.893,298.152,372.852,282.541,382.099z"/>
	</g>
</g>
<g>
	<g>
		<path d="M485.585,93.863H349.988V44.11c0-17.569-14.293-31.862-31.863-31.862H195.093c-17.569,0-31.863,14.293-31.863,31.862    v49.753H26.415C11.85,93.863,0,105.712,0,120.277v63.121c0,7.664,5.903,13.967,13.399,14.622v190.823v64.562v1.891    c0,9.81,7.98,17.79,17.79,17.79h1.892h18.69v13.497c0,7.262,5.908,13.17,13.17,13.17h27.031c7.262,0,13.17-5.908,13.17-13.17    v-13.497h301.716v13.497c0,7.262,5.908,13.17,13.17,13.17h27.031c7.262,0,13.17-5.908,13.17-13.17v-13.497h18.69h1.892    c9.81,0,17.79-7.98,17.79-17.79v-1.891v-64.562V198.02c7.497-0.656,13.399-6.958,13.399-14.622v-63.121    C512,105.712,500.15,93.863,485.585,93.863z M178.23,44.11c0-9.298,7.564-16.862,16.863-16.862h123.032    c9.298,0,16.863,7.564,16.863,16.862v49.753h-17.277V57.656c0-8.05-6.549-14.6-14.599-14.6h-93.005    c-8.05,0-14.599,6.55-14.599,14.6v36.207H178.23V44.11z M302.711,58.055v35.807h-92.204V58.055H302.711z M90.142,484.752H66.771    v-11.667h23.371V484.752z M90.142,458.084H59.271h-26.19c-2.582,0-4.682-2.1-4.682-4.681v-57.062h30.954    c16.977,0,30.789,13.812,30.789,30.789V458.084z M445.229,484.752h-23.371v-11.667h23.371V484.752z M483.601,453.404    c0,2.581-2.1,4.681-4.682,4.681h-26.19h-30.871v-30.953c0-16.978,13.812-30.789,30.789-30.789h30.954V453.404z M497.001,183.085    H497h-53.944v-18.412c0-9.529-7.725-17.254-17.254-17.254h-22.887c-9.53,0-17.255,7.725-17.255,17.255v18.411H205.73    c-4.142,0-7.5,3.358-7.5,7.5c0,4.142,3.358,7.5,7.5,7.5h179.93v19.552c0,9.529,7.725,17.254,17.254,17.254h22.888    c9.529,0,17.254-7.725,17.254-17.254v-19.551h40.545v183.258h-30.954c-25.289,0-45.789,20.5-45.789,45.789v30.953H105.142v-30.953    c0-25.289-20.5-45.789-45.789-45.789H28.399V198.085h32.038v19.552c0,9.529,7.725,17.254,17.254,17.254h22.887    c9.53,0,17.255-7.725,17.255-17.255v-19.551h52.897c4.142,0,7.5-3.358,7.5-7.5c0-4.142-3.358-7.5-7.5-7.5h-52.897v-18.412    c0-9.529-7.725-17.254-17.254-17.254H77.692c-9.529,0-17.254,7.725-17.254,17.254v18.412H15v-62.809    c0-6.304,5.11-11.414,11.414-11.414h176.593h107.204h175.375c6.304,0,11.415,5.11,11.415,11.415V183.085z M428.056,164.673v52.964    c0,1.243-1.011,2.254-2.254,2.254h-22.887c-1.243,0-2.255-1.011-2.255-2.254v-52.964c0-1.243,1.012-2.254,2.255-2.254h22.887    C427.044,162.419,428.056,163.43,428.056,164.673z M75.438,217.638v-27.042c0-0.003,0-0.006,0-0.01c0-0.004,0-0.007,0-0.01    v-25.902c0-1.243,1.011-2.254,2.254-2.254h22.887c1.243,0,2.255,1.011,2.255,2.254v25.902c0,0.003,0,0.006,0,0.01    c0,0.004,0,0.006,0,0.01v27.042c0,1.243-1.012,2.254-2.255,2.254H77.692C76.449,219.891,75.438,218.881,75.438,217.638z"/>
	</g>
</g>
</svg>
