<svg xmlns="http://www.w3.org/2000/svg"><symbol id="calculator" viewBox="0 0 512 512"><path d="M117.627 198.823H88.312c-10.753 0-19.501 8.748-19.501 19.501v29.315c0 10.753 8.749 19.501 19.501 19.501h29.315c10.753 0 19.501-8.749 19.501-19.501v-29.315c0-10.752-8.748-19.501-19.501-19.501zm4.5 48.817c0 2.439-2.061 4.5-4.5 4.5H88.312c-2.439 0-4.5-2.061-4.5-4.5v-29.315c0-2.439 2.061-4.5 4.5-4.5h29.315c2.439 0 4.5 2.061 4.5 4.5v29.315zM140.998 312.612c0-10.753-8.749-19.501-19.501-19.501H92.183c-10.753 0-19.501 8.749-19.501 19.501v29.315c0 10.753 8.749 19.501 19.501 19.501h29.315c10.753 0 19.501-8.749 19.501-19.501l-.001-29.315zm-15 29.314c-.001 2.439-2.062 4.5-4.501 4.5H92.183c-2.439 0-4.5-2.061-4.5-4.5v-29.315c0-2.439 2.061-4.5 4.5-4.5h29.315c2.439 0 4.5 2.061 4.5 4.5v29.315zM120.293 387.175H90.979c-10.753 0-19.501 8.748-19.501 19.501v29.315c0 10.754 8.748 19.501 19.501 19.501h29.315c10.753 0 19.501-8.748 19.501-19.501v-29.315c-.001-10.752-8.749-19.501-19.502-19.501zm4.501 48.816c0 2.439-2.061 4.5-4.5 4.5H90.979c-2.439 0-4.5-2.061-4.5-4.5v-29.315c0-2.439 2.061-4.5 4.5-4.5h29.315c2.439 0 4.5 2.061 4.5 4.5v29.315zM210.753 198.823h-29.315c-10.753 0-19.501 8.748-19.501 19.501v29.315c0 10.753 8.749 19.501 19.501 19.501h29.315c10.753 0 19.501-8.749 19.501-19.501v-29.315c0-10.752-8.749-19.501-19.501-19.501zm4.5 48.817c0 2.439-2.061 4.5-4.5 4.5h-29.315c-2.439 0-4.5-2.061-4.5-4.5v-29.315c0-2.439 2.061-4.5 4.5-4.5h29.315c2.439 0 4.5 2.061 4.5 4.5v29.315zM212.688 293.111h-29.315c-10.753 0-19.501 8.749-19.501 19.501v29.315c0 10.753 8.749 19.501 19.501 19.501h29.315c10.753 0 19.501-8.749 19.501-19.501v-29.315c0-10.754-8.748-19.501-19.501-19.501zm4.5 48.815c0 2.439-2.061 4.5-4.5 4.5h-29.315c-2.439 0-4.5-2.061-4.5-4.5v-29.315c0-2.439 2.061-4.5 4.5-4.5h29.315c2.439 0 4.5 2.061 4.5 4.5v29.315zM212.086 387.175h-29.315c-10.753 0-19.501 8.748-19.501 19.501v29.315c0 10.754 8.749 19.501 19.501 19.501h29.315c10.753 0 19.501-8.748 19.501-19.501v-29.315c0-10.752-8.748-19.501-19.501-19.501zm4.5 48.816c0 2.439-2.061 4.5-4.5 4.5h-29.315c-2.439 0-4.5-2.061-4.5-4.5v-29.315c0-2.439 2.061-4.5 4.5-4.5h29.315c2.439 0 4.5 2.061 4.5 4.5v29.315zM303.877 198.824h-29.315c-10.753 0-19.501 8.749-19.501 19.501v29.315c0 10.753 8.749 19.501 19.501 19.501h29.315c10.753 0 19.501-8.749 19.501-19.501v-29.315c.001-10.753-8.748-19.501-19.501-19.501zm4.501 48.815c0 2.439-2.061 4.5-4.5 4.5h-29.315c-2.439 0-4.5-2.061-4.5-4.5v-29.315c0-2.439 2.061-4.5 4.5-4.5h29.315c2.439 0 4.5 2.061 4.5 4.5v29.315zM289.221 104.447H106.839a7.5 7.5 0 0 0-7.5 7.5 7.5 7.5 0 0 0 7.5 7.5H289.22a7.5 7.5 0 0 0 7.5-7.5 7.499 7.499 0 0 0-7.499-7.5zM402.936 334.513c-40.418 0-73.301 32.883-73.301 73.301s32.883 73.301 73.301 73.301 73.301-32.883 73.301-73.301c.001-40.418-32.882-73.301-73.301-73.301zm0 131.602c-32.147 0-58.301-26.154-58.301-58.301s26.154-58.301 58.301-58.301c32.147 0 58.301 26.154 58.301 58.301s-26.154 58.301-58.301 58.301z"/><path d="M402.936 303.629c-5.309 0-10.527.402-15.625 1.172V21.951C387.311 9.848 377.464 0 365.36 0H26.83C14.726 0 4.878 9.848 4.878 21.951v468.097C4.878 502.153 14.726 512 26.83 512h151.764c4.143 0 7.5-3.358 7.5-7.5s-3.357-7.5-7.5-7.5H26.83a6.958 6.958 0 0 1-6.95-6.95V21.951a6.958 6.958 0 0 1 6.95-6.95h338.53a6.958 6.958 0 0 1 6.95 6.95v286.272a104.034 104.034 0 0 0-48.932 32.233V315.06c0-12.104-9.848-21.951-21.951-21.951h-24.414c-12.104 0-21.95 9.848-21.95 21.951v118.48c0 12.104 9.848 21.951 21.95 21.951h24.414c2.809 0 5.538-.539 8.075-1.547 9.166 18.471 23.272 33.148 39.626 43.053H213.596c-4.143 0-7.5 3.358-7.5 7.5s3.357 7.5 7.5 7.5H365.36c4.111 0 8.072-1.16 11.514-3.301a104.017 104.017 0 0 0 26.063 3.301c57.448 0 104.185-46.737 104.185-104.185 0-57.447-46.738-104.183-104.186-104.183zm-94.558 60.331c-6.227 13.462-9.627 28.434-9.627 43.855 0 10.863 1.702 21.856 5.077 32.241-.76.286-1.57.436-2.401.436h-24.414c-3.832 0-6.949-3.118-6.949-6.95v-118.48c0-3.832 3.117-6.95 6.949-6.95h24.414a6.958 6.958 0 0 1 6.95 6.95v48.898zm94.558 133.039c-50.287 0-89.184-41.414-89.184-89.184 0-49.285 40.116-89.184 89.184-89.184 49.176 0 89.184 40.007 89.184 89.184.001 49.177-40.008 89.184-89.184 89.184z"/><path d="M407.725 400.694v-19.369c4.119.333 6.236 1.308 10.675 3.521 2.34 1.176 5.045.597 6.769-2.319 1.744-2.971 2.11-6.565-.551-8.781-4.201-3.487-11.576-4.583-16.893-4.583v-2.889c0-.741-.386-1.389-1.156-1.945a4.323 4.323 0 0 0-2.586-.834c-1.028 0-1.908.275-2.641.826-.734.55-1.101 1.193-1.101 1.926v3.081c-12.779 1.687-21.351 8.643-21.351 21.46 0 13.505 10.013 17.792 21.351 22.121v21.9c-5.817-.703-8.59-2.972-14.087-7.098-2.742-2.053-5.414-1.276-7.429 1.547-.98 1.38-1.815 3.385-1.815 5.021 0 6.498 10.685 13.571 23.331 13.571v3.11c0 1.636 1.881 2.777 3.741 2.777 1.716 0 3.742-1.131 3.742-2.751v-3.412c11.07-1.71 20.8-8.715 20.8-23.331.001-13.372-8.422-19.047-20.799-23.549zm-6.604-2.42c-6.686-2.672-8.805-4.823-8.805-8.915 0-4.79 4.054-6.954 8.805-7.704v16.619zm5.723 36.427v-19.149c6.855 3.004 8.255 6.27 8.255 10.126-.001 5.126-3.347 7.984-8.255 9.023zM334.014 101.947a7.5 7.5 0 0 0 7.5-7.5V70.534c0-10.753-8.749-19.501-19.501-19.501H70.176c-10.753 0-19.501 8.749-19.501 19.501v82.826c0 10.753 8.749 19.501 19.501 19.501h251.837c10.753.001 19.501-8.747 19.501-19.5v-23.912c0-4.142-3.357-7.5-7.5-7.5s-7.5 3.358-7.5 7.5v23.912c0 2.439-2.061 4.5-4.5 4.5H70.176c-2.439 0-4.5-2.061-4.5-4.5V70.534c0-2.439 2.061-4.5 4.5-4.5h251.837c2.439 0 4.5 2.061 4.5 4.5v23.912a7.501 7.501 0 0 0 7.501 7.501z"/></symbol><symbol id="calendar" viewBox="0 0 512 512"><path d="M478.596 27.661H82.662c-18.419 0-33.404 14.985-33.404 33.404v176.504C19.134 263.299 0 301.538 0 344.167c0 77.291 62.881 140.172 140.172 140.172 52.727 0 98.741-29.27 122.667-72.409h215.757c18.419 0 33.404-14.985 33.404-33.404V61.065c0-18.42-14.985-33.404-33.404-33.404zM64.523 61.065c0-10.003 8.137-18.14 18.139-18.14h395.933c10.003 0 18.14 8.138 18.14 18.14v50.153H64.523V61.065zm187.542 338.572a7.577 7.577 0 0 0-1.285 2.511c-20.925 39.754-62.65 66.927-110.608 66.927-68.875 0-124.908-56.033-124.908-124.908 0-68.874 56.033-124.907 124.908-124.907 68.874 0 124.908 56.033 124.908 124.907 0 19.913-4.692 38.748-13.015 55.47zm244.671-21.112c0 10.003-8.138 18.141-18.14 18.141H270.134c6.577-16.223 10.21-33.944 10.21-52.499 0-9.425-.942-18.633-2.724-27.541 6.1-.865 10.811-6.107 10.811-12.442v-22.103c0-6.937-5.644-12.582-12.582-12.582h-17.102a141.001 141.001 0 0 0-10.414-14.394 12.484 12.484 0 0 0 5.413 1.241h22.103c6.938 0 12.582-5.644 12.582-12.582v-22.103c0-6.937-5.644-12.582-12.582-12.582h-22.103c-6.938 0-12.582 5.644-12.582 12.582v22.103c0 1.395.238 2.734.659 3.989-25.56-26.935-61.677-43.757-101.651-43.757-27.842 0-53.813 8.161-75.65 22.214v-99.729h432.214v252.044zm-229.623-93.762h6.054v15.112a139.255 139.255 0 0 0-6.054-15.112zm-10.684-43.681v-16.739h16.739v16.739h-16.739z"/><path d="M194.49 336.535h-31.727a23.955 23.955 0 0 0-14.96-14.959v-55.78a7.632 7.632 0 0 0-15.264 0v55.78c-9.419 3.191-16.22 12.109-16.22 22.591 0 13.152 10.7 23.852 23.852 23.852 10.483 0 19.401-6.801 22.592-16.22h31.726a7.632 7.632 0 0 0 .001-15.264zm-54.318 16.22c-4.735 0-8.588-3.853-8.588-8.588s3.853-8.587 8.588-8.587 8.587 3.852 8.587 8.587c.001 4.735-3.852 8.588-8.587 8.588zM338 148.659h-22.103c-6.937 0-12.581 5.644-12.581 12.582v22.103c0 6.937 5.644 12.582 12.581 12.582H338c6.938 0 12.582-5.644 12.582-12.582v-22.103c0-6.937-5.644-12.582-12.582-12.582zm-2.682 32.003H318.58v-16.739h16.738v16.739zM400.455 148.659h-22.103c-6.937 0-12.581 5.644-12.581 12.582v22.103c0 6.937 5.644 12.582 12.581 12.582h22.103c6.938 0 12.582-5.644 12.582-12.582v-22.103c0-6.937-5.644-12.582-12.582-12.582zm-2.682 32.003h-16.738v-16.739h16.738v16.739zM462.91 148.659h-22.103c-6.937 0-12.581 5.644-12.581 12.582v22.103c0 6.937 5.644 12.582 12.581 12.582h22.103c6.938 0 12.582-5.644 12.582-12.582v-22.103c0-6.937-5.644-12.582-12.582-12.582zm-2.682 32.003H443.49v-16.739h16.738v16.739zM338 209.079h-22.103c-6.937 0-12.581 5.644-12.581 12.582v22.103c0 6.937 5.644 12.582 12.581 12.582H338c6.938 0 12.582-5.644 12.582-12.582v-22.103c0-6.937-5.644-12.582-12.582-12.582zm-2.682 32.003H318.58v-16.739h16.738v16.739zM400.455 209.079h-22.103c-6.937 0-12.581 5.644-12.581 12.582v22.103c0 6.937 5.644 12.582 12.581 12.582h22.103c6.938 0 12.582-5.644 12.582-12.582v-22.103c0-6.937-5.644-12.582-12.582-12.582zm-2.682 32.003h-16.738v-16.739h16.738v16.739zM462.91 209.079h-22.103c-6.937 0-12.581 5.644-12.581 12.582v22.103c0 6.937 5.644 12.582 12.581 12.582h22.103c6.938 0 12.582-5.644 12.582-12.582v-22.103c0-6.937-5.644-12.582-12.582-12.582zm-2.682 32.003H443.49v-16.739h16.738v16.739zM338 269.499h-22.103c-6.937 0-12.581 5.645-12.581 12.582v22.103c0 6.937 5.644 12.582 12.581 12.582H338c6.938 0 12.582-5.644 12.582-12.582v-22.103c0-6.937-5.644-12.582-12.582-12.582zm-2.682 32.003H318.58v-16.739h16.738v16.739zM400.455 269.499h-22.103c-6.937 0-12.581 5.645-12.581 12.582v22.103c0 6.937 5.644 12.582 12.581 12.582h22.103c6.938 0 12.582-5.644 12.582-12.582v-22.103c0-6.937-5.644-12.582-12.582-12.582zm-2.682 32.003h-16.738v-16.739h16.738v16.739zM462.91 269.499h-22.103c-6.937 0-12.581 5.645-12.581 12.582v22.103c0 6.937 5.644 12.582 12.581 12.582h22.103c6.938 0 12.582-5.644 12.582-12.582v-22.103c0-6.937-5.644-12.582-12.582-12.582zm-2.682 32.003H443.49v-16.739h16.738v16.739zM338 329.919h-22.103c-6.937 0-12.581 5.644-12.581 12.582v22.103c0 6.937 5.644 12.582 12.581 12.582H338c6.938 0 12.582-5.645 12.582-12.582v-22.103c0-6.938-5.644-12.582-12.582-12.582zm-2.682 32.003H318.58v-16.739h16.738v16.739zM275.849 148.659h-22.103c-6.938 0-12.582 5.644-12.582 12.582v22.103c0 6.937 5.644 12.582 12.582 12.582h22.103c6.938 0 12.582-5.644 12.582-12.582v-22.103c0-6.937-5.644-12.582-12.582-12.582zm-2.682 32.003h-16.739v-16.739h16.739v16.739zM214.454 148.659h-22.103c-6.937 0-12.581 5.644-12.581 12.582v22.103c0 6.937 5.644 12.582 12.581 12.582h22.103c6.938 0 12.582-5.644 12.582-12.582v-22.103c0-6.937-5.644-12.582-12.582-12.582zm-2.682 32.003h-16.738v-16.739h16.738v16.739zM400.455 329.919h-22.103c-6.937 0-12.581 5.644-12.581 12.582v22.103c0 6.937 5.644 12.582 12.581 12.582h22.103c6.938 0 12.582-5.645 12.582-12.582v-22.103c0-6.938-5.644-12.582-12.582-12.582zm-2.682 32.003h-16.738v-16.739h16.738v16.739zM462.91 329.919h-22.103c-6.937 0-12.581 5.644-12.581 12.582v22.103c0 6.937 5.644 12.582 12.581 12.582h22.103c6.938 0 12.582-5.645 12.582-12.582v-22.103c0-6.938-5.644-12.582-12.582-12.582zm-2.682 32.003H443.49v-16.739h16.738v16.739z"/><circle cx="173.02" cy="78.51" r="9.17"/><circle cx="395.45" cy="78.51" r="9.17"/></symbol><symbol id="compass" viewBox="0 0 511.999 511.999"><path d="M317.901 269.303h-38.825c-3.356-24.928-23.136-44.707-48.063-48.063v-38.824a7.52 7.52 0 0 0-7.52-7.52 7.52 7.52 0 0 0-7.52 7.52v38.823a55.196 55.196 0 0 0-13.564 3.609L154.9 197.984a7.519 7.519 0 1 0-10.247 10.247l26.865 47.507a55.215 55.215 0 0 0-3.609 13.565h-38.824c-4.153 0-7.52 3.366-7.52 7.52s3.367 7.52 7.52 7.52h38.825c3.356 24.928 23.135 44.706 48.062 48.063v38.825c0 4.154 3.367 7.52 7.52 7.52s7.52-3.366 7.52-7.52v-38.823a55.222 55.222 0 0 0 13.566-3.609l47.507 26.865a7.519 7.519 0 1 0 10.247-10.247l-26.865-47.508a55.215 55.215 0 0 0 3.609-13.565H317.9c4.153 0 7.52-3.366 7.52-7.52s-3.366-7.521-7.519-7.521zm-94.407-33.541c22.642 0 41.061 18.42 41.061 41.061 0 .576-.012 1.149-.035 1.722l-14.414-25.489a7.787 7.787 0 0 0-2.845-2.845l-25.489-14.414a42.817 42.817 0 0 1 1.722-.035zm-52.413-11.351l60.166 34.023-26.143 26.143-34.023-60.166zm11.386 50.691l14.414 25.489a7.792 7.792 0 0 0 2.844 2.845l25.489 14.414c-23.904.983-43.717-18.639-42.747-42.748zm93.438 54.135l-60.166-34.024 26.143-26.143 34.023 60.167zM409.565 37.795c-42.179 0-76.532 34.338-76.532 76.531 0 43.683 36.803 78.953 81.007 76.389 40.975-2.501 72.056-36.435 72.056-76.389 0-42.199-34.332-76.531-76.531-76.531zm-61.306 71.993a211.967 211.967 0 0 1 22.633 19.637c13.854 13.853 25.585 29.379 34.98 46.271-33.736-2.01-60.152-31.248-57.613-65.908zm74.017 64.699c-10.569-20.486-24.255-39.204-40.749-55.699a226.747 226.747 0 0 0-29.872-25.121c8.507-23.773 31.25-40.832 57.91-40.832 33.906 0 61.492 27.585 61.492 61.491-.002 29.549-20.955 54.289-48.781 60.161z"/><path d="M505.72 124.694c-4.1-.676-7.972 2.08-8.658 6.175-4.216 25.183-18.479 46.591-40.157 60.277a25.687 25.687 0 0 0-6.215 5.475l-33.473 41.02c-1.488 1.474-5.527 5.375-7.629 5.542-2.006.139-5.85-3.734-7.191-5.012-.899-1.003-8.14-9.931-34.34-42.038a21.332 21.332 0 0 0-5.274-4.646c-46.453-28.896-55.697-91.734-20.903-132.782 16.91-19.949 41.583-31.391 67.692-31.391 42.191 0 78.752 29.774 87.001 71.172a7.52 7.52 0 0 0 8.845 5.906 7.52 7.52 0 0 0 5.906-8.845c-4.79-24.04-17.507-44.935-36.778-60.429-17.366-14.069-40.247-22.845-64.972-22.845-41.316 0-77.756 24.33-94.382 60.636-28.789-12.986-59.593-19.579-91.698-19.579-59.698 0-115.821 23.247-158.033 65.458C23.247 161.001 0 217.126 0 276.823c0 59.698 23.247 115.822 65.459 158.032 37.913 37.914 88.112 60.946 141.349 64.851a7.52 7.52 0 0 0 1.101-14.999c-49.64-3.642-96.452-25.122-131.815-60.486C36.723 384.85 15.04 332.503 15.04 276.823s21.683-108.027 61.054-147.398 91.718-61.054 147.398-61.054c30.283 0 59.321 6.267 86.412 18.639a101.961 101.961 0 0 0-4.063 24.914 183.979 183.979 0 0 0-82.349-19.45c-101.651 0-184.35 82.7-184.35 184.35s82.699 184.35 184.35 184.35c101.652 0 184.351-82.7 184.351-184.35 0-6.263-.322-12.545-.961-18.793 1.141.178 2.596.25 3.894.147 7.297-.58 14.48-6.599 18.933-12.057a211.786 211.786 0 0 1 2.235 30.702c0 55.68-21.683 108.027-61.054 147.397-35.157 35.158-79.794 55.993-129.086 60.252a7.52 7.52 0 0 0-6.845 8.139c.357 4.138 3.999 7.186 8.14 6.845 52.111-4.503 101.271-27.445 138.426-64.601 42.213-42.212 65.46-98.335 65.46-158.033 0-15.521-1.61-30.99-4.75-46.052l20.106-24.64a10.68 10.68 0 0 1 2.588-2.264c25.353-16.006 42.031-41.048 46.965-70.514a7.52 7.52 0 0 0-6.174-8.658zM385.751 284.342h6.877c-3.84 87.388-74.229 157.776-161.615 161.615v-6.876a7.52 7.52 0 0 0-7.52-7.52 7.52 7.52 0 0 0-7.52 7.52v6.876c-87.387-3.839-157.775-74.228-161.614-161.614h6.876c4.153 0 7.52-3.366 7.52-7.52s-3.367-7.52-7.52-7.52h-6.876c3.839-87.387 74.228-157.775 161.614-161.615v6.876a7.52 7.52 0 0 0 7.52 7.52 7.52 7.52 0 0 0 7.52-7.52V107.7a168.78 168.78 0 0 1 75.634 21.714c.143 1.113.3 2.226.479 3.338.613 8.662 10.12 48.121 47.714 71.505.585.363 1.111.83 1.564 1.386 25.557 31.32 31.248 38.335 33.738 41.32a170.197 170.197 0 0 1 2.489 22.339h-6.88c-4.153 0-7.52 3.366-7.52 7.52s3.367 7.52 7.52 7.52z"/></symbol><symbol id="house" viewBox="0 0 512 512"><path d="M504.5 448.497h-31.498v-273.27l20.876 7.796c.058.021.116.036.174.056.121.043.243.083.366.119.115.033.23.06.346.088.107.025.214.053.323.073.163.031.325.054.488.075.065.008.13.02.196.025.244.024.487.039.729.039.024 0 .049-.006.074-.006a7.461 7.461 0 0 0 1.179-.109 7.352 7.352 0 0 0 1.922-.599c.057-.026.111-.053.167-.08.304-.151.599-.317.878-.508.018-.012.033-.025.051-.038.255-.177.495-.372.726-.579.063-.056.125-.111.187-.169.231-.223.45-.456.651-.706.044-.054.083-.111.125-.167.183-.238.351-.487.503-.748.027-.046.058-.09.084-.137.171-.306.317-.626.445-.957.01-.025.025-.049.035-.075.019-.051.031-.102.049-.154a6.911 6.911 0 0 0 .22-.754 6.882 6.882 0 0 0 .14-.782 6.92 6.92 0 0 0 .056-.784c.001-.05.008-.099.008-.149v-30c0-.039-.005-.076-.006-.115a7.672 7.672 0 0 0-.024-.48 6.997 6.997 0 0 0-.026-.288 6.987 6.987 0 0 0-.063-.41 7.969 7.969 0 0 0-.065-.343c-.025-.111-.056-.222-.085-.332a8.298 8.298 0 0 0-.114-.389c-.03-.093-.066-.184-.101-.275a7.625 7.625 0 0 0-.162-.406c-.039-.086-.082-.171-.124-.256-.063-.129-.126-.258-.196-.382-.053-.094-.11-.184-.167-.274a6.855 6.855 0 0 0-.208-.324c-.071-.104-.149-.203-.227-.303-.066-.086-.133-.174-.203-.258a8.407 8.407 0 0 0-.285-.314c-.066-.069-.131-.141-.199-.207a6.947 6.947 0 0 0-.324-.295c-.073-.064-.146-.128-.221-.189a8.791 8.791 0 0 0-.329-.246c-.091-.064-.181-.13-.274-.191-.101-.065-.203-.125-.308-.187a7.426 7.426 0 0 0-.352-.196 7.568 7.568 0 0 0-.273-.131 8.02 8.02 0 0 0-.425-.185c-.039-.015-.075-.034-.114-.049L258.122 48.967c-.088-.033-.177-.055-.266-.084a7.38 7.38 0 0 0-1.237-.304 7.363 7.363 0 0 0-.979-.077c-.048-.001-.093-.011-.141-.011-.066 0-.132.007-.197.009a7.087 7.087 0 0 0-.712.054 6.595 6.595 0 0 0-.684.117c-.087.019-.174.037-.261.059a7.324 7.324 0 0 0-.376.111c-.107.033-.214.065-.319.104-.026.01-.054.017-.08.026l-112.36 42.14a7.44 7.44 0 0 0-4.2 3.91 7.426 7.426 0 0 0-.189 5.74 7.533 7.533 0 0 0 7.02 4.87c.9 0 1.79-.16 2.63-.48l109.737-41.146 233.495 87.198v13.988l-230.88-86.223c-.029-.011-.059-.018-.087-.027a7.25 7.25 0 0 0-.426-.135c-.096-.028-.19-.06-.287-.084a7.546 7.546 0 0 0-.428-.089c-.1-.019-.198-.042-.297-.056-.141-.021-.282-.032-.424-.045-.103-.01-.205-.023-.308-.028-.136-.007-.272-.003-.41-.003-.107.001-.216-.002-.323.003-.127.007-.254.022-.381.035-.118.012-.236.021-.353.038-.113.017-.226.042-.339.064-.131.025-.262.05-.391.082-.101.025-.199.058-.299.088a6.612 6.612 0 0 0-.42.133c-.028.011-.057.017-.085.027L22.998 165.174v-13.98l94.682-35.514c1.88-.7 3.37-2.09 4.2-3.91.83-1.83.9-3.87.189-5.74a7.533 7.533 0 0 0-7.02-4.869c-.9 0-1.78.159-2.63.479l-99.55 37.33c-.046.017-.088.04-.132.058a8.262 8.262 0 0 0-.385.166c-.095.045-.189.088-.281.136a8.144 8.144 0 0 0-1.261.816 7.31 7.31 0 0 0-.214.181c-.115.1-.229.201-.338.308-.061.059-.117.119-.175.18a7.427 7.427 0 0 0-.316.347c-.059.07-.114.143-.17.214-.09.114-.179.229-.262.349-.063.092-.121.187-.182.281-.066.105-.134.211-.195.321-.063.114-.121.23-.18.348-.035.073-.077.143-.111.217-.014.029-.022.06-.035.088a6.726 6.726 0 0 0-.148.373c-.041.108-.084.216-.119.326-.034.104-.062.21-.091.315-.04.143-.08.285-.111.43-.014.068-.024.137-.037.205a7.351 7.351 0 0 0-.087.568c-.004.034-.006.068-.009.104a7.204 7.204 0 0 0-.034.673l-.001.024v30c0 .055.007.107.008.162.004.154.011.309.023.463a8.795 8.795 0 0 0 .094.711 8.85 8.85 0 0 0 .162.7c.043.151.09.299.142.446.019.051.03.102.049.152.01.025.023.047.033.071.128.33.275.65.446.955.027.051.059.097.088.145.152.257.318.503.498.739.043.056.083.114.127.17.2.247.418.479.647.699.064.061.13.118.195.177.228.204.465.396.716.57.021.014.038.03.058.043a7.508 7.508 0 0 0 1.047.587 7.467 7.467 0 0 0 2.169.635 7.4 7.4 0 0 0 .925.07c.024 0 .049.006.074.006.243 0 .486-.015.731-.039.064-.006.128-.018.193-.025a7.74 7.74 0 0 0 .493-.076c.108-.021.215-.047.321-.072a6.727 6.727 0 0 0 .72-.211c.058-.02.116-.034.174-.056l19.87-7.451v272.929H7.5c-4.143 0-7.5 3.357-7.5 7.5s3.357 7.5 7.5 7.5h37.848c.052.001.102.008.154.008.053 0 .103-.007.154-.008h39.623c.071.002.141.011.213.011H205.508c4.143 0 7.5-3.357 7.5-7.5v-60.011c0-4.143-3.357-7.5-7.5-7.5h-22.5v-52.505c0-4.143-3.357-7.5-7.5-7.5h-22.506v-52.501a7.5 7.5 0 0 0-7.5-7.5h-52.51v-24.499h325.014v24.499H365.5a7.5 7.5 0 0 0-7.5 7.5v52.501h-22.506a7.499 7.499 0 0 0-7.5 7.5v52.505h-22.5a7.499 7.499 0 0 0-7.5 7.5v60.011c0 4.143 3.357 7.5 7.5 7.5H425.51c.072 0 .142-.009.213-.011h39.625c.052.001.102.008.154.008.053 0 .102-.007.154-.008H504.5c4.143 0 7.5-3.357 7.5-7.5a7.5 7.5 0 0 0-7.5-7.501zm-146.5.011h-45.006v-45.011h22.384c.039 0 .077.006.116.006H358v45.005zm7.504-60.011h-22.51v-45.005h22.313c.064.002.128.01.193.01h22.504v44.995h-22.5zm52.502 60.011h-45.002v-45.005h22.5c.039 0 .077-.006.116-.006h22.386v45.011zm0-60.011h-15.002v-44.995h15.002v44.995zm0-59.995h-22.309c-.064-.002-.128-.01-.193-.01H373v-45.001h45.006v45.011zM137.998 448.508H92.992v-45.011h22.39c.039 0 .077.006.116.006h22.5v45.005zm-45.006-60.011v-44.995h15.006v44.995H92.992zm82.632 14.999h22.384v45.011h-45.006v-45.005h22.506c.039 0 .077-.006.116-.006zm-29.929-60.004h22.313v45.005H122.998v-44.995h22.504c.065 0 .129-.008.193-.01zm-7.693-60.001v45.001h-22.504c-.065 0-.129.008-.193.01H92.992v-45.011h45.01zm280.004-54.499H92.992v-15.497h325.014v15.497zm39.996 219.505H433.01v-52.5c0-.026-.004-.051-.004-.077v-59.841c0-.025.004-.051.004-.077v-60.011c0-.026-.004-.051-.004-.077v-69.919c0-4.143-3.357-7.5-7.5-7.5H85.492a7.499 7.499 0 0 0-7.5 7.5v242.502h-24.99V169.942l202.502-75.939 202.498 75.623v278.871z"/></symbol><symbol id="laptop-1" viewBox="0 0 512 512"><path d="M504.414 433.201h-17.022V150.052c0-22.7-18.179-41.169-40.525-41.169h-21.061V38.866c0-21.254-17.291-38.545-38.545-38.545H130.125c-20.013 0-36.295 16.281-36.295 36.295v35.199c0 4.19 3.396 7.586 7.586 7.586s7.586-3.396 7.586-7.586V36.616c0-11.647 9.476-21.123 21.123-21.123H356.64c-4.965 6.489-7.924 14.59-7.924 23.373v76.657c-.039.311-.065.625-.065.946s.026.636.065.946v35.019a7.577 7.577 0 0 0-.065.946c0 .321.026.636.065.946V338.97c0 11.647-9.476 21.123-21.123 21.123H130.125c-11.647 0-21.123-9.476-21.123-21.123V101.598c0-4.19-3.396-7.586-7.586-7.586s-7.586 3.396-7.586 7.586v7.286H65.132c-22.345 0-40.524 18.468-40.524 41.169v254.466c0 4.19 3.396 7.586 7.586 7.586s7.586-3.396 7.586-7.586V150.052c0-14.335 11.373-25.997 25.352-25.997H93.83v21.74H69.614a7.586 7.586 0 0 0-7.586 7.586v251.137a7.586 7.586 0 0 0 7.586 7.586h376.357a7.586 7.586 0 0 0 7.586-7.586v-159.25c0-4.19-3.396-7.586-7.586-7.586s-7.586 3.396-7.586 7.586v151.666H77.2V160.968h16.63v178.004c0 20.013 16.281 36.295 36.295 36.295h197.468c20.013 0 36.295-16.282 36.295-36.295V160.968h74.498v39.698c0 4.19 3.396 7.586 7.586 7.586s7.586-3.396 7.586-7.586v-47.284a7.586 7.586 0 0 0-7.586-7.586h-82.083v-21.74h82.981c13.98 0 25.353 11.662 25.353 25.997v283.149H7.586A7.586 7.586 0 0 0 0 440.788v15.867c0 30.341 24.684 55.025 55.025 55.025h401.95c30.341 0 55.025-24.684 55.025-55.025v-15.867a7.586 7.586 0 0 0-7.586-7.587zm-93.779-324.318h-46.747V38.866c0-12.888 10.485-23.373 23.374-23.373 12.887-.001 23.373 10.484 23.373 23.372v70.018zm86.194 347.77h-.001c0 21.975-17.878 39.853-39.853 39.853H55.025c-21.975 0-39.853-17.878-39.853-39.853v-8.281h462.941c.545.125 1.111.197 1.694.197s1.148-.072 1.694-.197h15.328v8.281z"/><path d="M197.58 33.576h-49c-11.82 0-21.437 9.617-21.437 21.437v49c0 11.821 9.617 21.437 21.437 21.437h49c11.82 0 21.437-9.616 21.437-21.437v-49c0-11.82-9.616-21.437-21.437-21.437zm6.265 70.439a6.271 6.271 0 0 1-6.265 6.265h-49a6.271 6.271 0 0 1-6.265-6.265v-49a6.271 6.271 0 0 1 6.265-6.265h49a6.272 6.272 0 0 1 6.265 6.265v49z"/><path d="M190.747 66.45a7.587 7.587 0 0 0-10.728 0l-9.868 9.868-2.198-2.198a7.587 7.587 0 0 0-10.728 10.728l7.562 7.562c1.481 1.481 3.423 2.222 5.364 2.222s3.883-.741 5.364-2.222l15.232-15.232a7.585 7.585 0 0 0 0-10.728zM197.58 141.856h-49c-11.82 0-21.437 9.617-21.437 21.437v48.999c0 11.82 9.616 21.437 21.437 21.437h49c11.82 0 21.437-9.617 21.437-21.437v-48.999c0-11.82-9.616-21.437-21.437-21.437zm6.265 70.436a6.271 6.271 0 0 1-6.265 6.265h-49a6.272 6.272 0 0 1-6.265-6.265v-48.999a6.271 6.271 0 0 1 6.265-6.265h49a6.272 6.272 0 0 1 6.265 6.265v48.999zM197.58 250.135h-49c-11.82 0-21.437 9.617-21.437 21.437v48.999c0 11.82 9.616 21.437 21.437 21.437h49c11.82 0 21.437-9.617 21.437-21.437v-48.999c0-11.82-9.616-21.437-21.437-21.437zm6.265 70.436a6.271 6.271 0 0 1-6.265 6.265h-49a6.272 6.272 0 0 1-6.265-6.265v-48.999a6.271 6.271 0 0 1 6.265-6.265h49a6.272 6.272 0 0 1 6.265 6.265v48.999z"/><path d="M190.747 283.008a7.587 7.587 0 0 0-10.728 0l-9.868 9.868-2.198-2.198a7.587 7.587 0 0 0-10.728 10.728l7.562 7.562a7.585 7.585 0 0 0 10.728 0l15.232-15.232a7.585 7.585 0 0 0 0-10.728zM183.534 186.791l7.638-7.638a7.587 7.587 0 0 0-10.728-10.728l-7.638 7.638-7.638-7.638a7.587 7.587 0 0 0-10.728 10.728l7.638 7.638-7.638 7.638a7.585 7.585 0 0 0 5.364 12.95 7.563 7.563 0 0 0 5.364-2.222l7.638-7.638 7.638 7.638a7.563 7.563 0 0 0 5.364 2.222 7.585 7.585 0 0 0 5.364-12.95l-7.638-7.638zM318.562 54.818H240.04a7.586 7.586 0 0 0 0 15.172h78.522c4.19 0 7.586-3.396 7.586-7.586s-3.396-7.586-7.586-7.586zM289.659 86.426H240.04a7.586 7.586 0 0 0 0 15.172h49.619a7.586 7.586 0 0 0 7.586-7.586 7.586 7.586 0 0 0-7.586-7.586zM318.562 163.4H240.04a7.586 7.586 0 0 0 0 15.172h78.522c4.19 0 7.586-3.396 7.586-7.586s-3.396-7.586-7.586-7.586zM289.659 195.008H240.04a7.586 7.586 0 0 0 0 15.172h49.619c4.19 0 7.586-3.396 7.586-7.586s-3.396-7.586-7.586-7.586zM318.562 271.363H240.04a7.586 7.586 0 0 0 0 15.172h78.522c4.19 0 7.586-3.396 7.586-7.586s-3.396-7.586-7.586-7.586zM289.659 302.971H240.04a7.586 7.586 0 0 0 0 15.172h49.619c4.19 0 7.586-3.396 7.586-7.586s-3.396-7.586-7.586-7.586z"/></symbol><symbol id="laptop-2" viewBox="0 0 512.001 512.001"><path d="M504.313 430.353h-16.911v-282.93c0-22.749-18.219-41.256-40.612-41.256h-73.609a7.688 7.688 0 0 0 0 15.374h73.609c13.916 0 25.238 11.611 25.238 25.882v282.93H7.687A7.688 7.688 0 0 0 0 438.04v15.86c0 30.386 24.721 55.107 55.107 55.107h401.787c30.386 0 55.107-24.721 55.107-55.107v-15.86a7.689 7.689 0 0 0-7.688-7.687zm-7.686 23.546c-.001 21.909-17.825 39.733-39.734 39.733H55.107c-21.909 0-39.733-17.824-39.733-39.733v-8.173h481.253v8.173z"/><path d="M445.894 205.702a7.688 7.688 0 0 0 7.687-7.687V150.75a7.688 7.688 0 0 0-7.687-7.687H352.79V41.815c.234-.501.442-1.019.61-1.56l6.42-20.773a12.107 12.107 0 0 0-1.817-10.721 12.107 12.107 0 0 0-9.706-4.901h-30.619a12.11 12.11 0 0 0-9.707 4.902 12.106 12.106 0 0 0-1.817 10.72l6.42 20.774c.167.541.376 1.058.61 1.559v64.352h-52.139a79.245 79.245 0 0 0 5.914-30.063c0-31.27-18.471-59.706-47.06-72.445a7.687 7.687 0 0 0-10.815 7.021v55.383a3.44 3.44 0 0 1-3.437 3.437H169.68a3.44 3.44 0 0 1-3.436-3.437V10.681a7.687 7.687 0 0 0-10.815-7.021c-28.588 12.739-47.06 41.175-47.06 72.445a78.944 78.944 0 0 0 5.965 30.063H65.21c-22.393 0-40.612 18.507-40.612 41.256v254.363a7.688 7.688 0 0 0 15.374-.002V147.423c0-14.272 11.322-25.882 25.238-25.882h57.528a79.45 79.45 0 0 0 22.48 21.523H69.69a7.688 7.688 0 0 0-7.687 7.687v251.035a7.688 7.688 0 0 0 7.687 7.687h257.83c1.794.218 3.616.343 5.468.343s3.674-.125 5.468-.343h107.438a7.688 7.688 0 0 0 7.687-7.687V242.599a7.688 7.688 0 0 0-15.374 0v151.5h-71.045c6.804-7.9 10.931-18.168 10.931-29.388v-86.375a7.685 7.685 0 0 0-4.588-7.034 24.299 24.299 0 0 1-14.504-22.222c0-9.617 5.693-18.34 14.504-22.222a7.688 7.688 0 0 0 4.588-7.034V203.53c0-11.616-9.45-21.066-21.066-21.066h-4.237v-24.027h85.417v39.578a7.688 7.688 0 0 0 7.687 7.687zM343.806 19.234l-4.373 14.148h-12.89l-4.373-14.148h21.636zm-6.389 29.521v133.709h-8.858V48.755h8.858zm-79.625 72.785h55.393v21.523h-83.044a79.201 79.201 0 0 0 23.4-22.808 7.641 7.641 0 0 0 4.251 1.285zm-47.033 262.608c-6.074 6.394-14.275 9.916-23.094 9.916-8.778 0-16.952-3.494-23.019-9.837-6.066-6.344-9.192-14.666-8.8-23.435l4.957-110.962a7.687 7.687 0 0 0-7.336-8.022c-4.217-.18-7.833 3.095-8.022 7.336l-4.957 110.961c-.565 12.661 3.827 24.687 12.363 33.994H77.376V158.437h72.12l-2.624 58.74a7.688 7.688 0 0 0 7.336 8.023c4.244.176 7.833-3.095 8.023-7.336l3.407-76.263a7.686 7.686 0 0 0-4.486-7.335c-22.725-10.379-37.409-33.208-37.409-58.16 0-21.007 10.342-40.427 27.128-52.261v42.219c0 10.372 8.438 18.81 18.81 18.81h35.967c10.372 0 18.81-8.438 18.81-18.81V23.845c16.786 11.834 27.128 31.254 27.128 52.26a63.89 63.89 0 0 1-38.72 58.755 7.687 7.687 0 0 0-4.643 7.459l11.25 218.255c.454 8.807-2.64 17.18-8.714 23.574zm88.055 9.95H222.48c8.618-9.398 13.005-21.545 12.346-34.317l-10.378-201.344h88.737v24.027h-4.237c-11.615 0-21.065 9.45-21.065 21.066v16.293a7.685 7.685 0 0 0 4.587 7.034 24.299 24.299 0 0 1 14.504 22.222c0 9.617-5.693 18.34-14.504 22.222a7.687 7.687 0 0 0-4.587 7.034v86.375c0 11.22 4.127 21.487 10.931 29.388zm58.213-196.26a5.698 5.698 0 0 1 5.692 5.692v11.647c-11.742 7.124-19.091 19.935-19.091 33.902 0 13.967 7.349 26.778 19.091 33.902v81.73c0 14.857-10.954 27.203-25.209 29.388h-9.045c-14.255-2.185-25.209-14.531-25.209-29.388v-81.73c11.742-7.124 19.091-19.935 19.091-33.902 0-13.967-7.349-26.778-19.091-33.902V203.53a5.698 5.698 0 0 1 5.692-5.692h48.079z"/><path d="M201.073 347.612a19.404 19.404 0 0 0-13.811-5.721 19.404 19.404 0 0 0-13.811 5.721c-7.615 7.615-7.615 20.006 0 27.622 3.808 3.808 8.81 5.711 13.811 5.711 5.001 0 10.003-1.903 13.811-5.711 7.615-7.616 7.615-20.007 0-27.622zm-10.869 16.752a4.164 4.164 0 0 1-5.881 0 4.163 4.163 0 0 1-.001-5.881c.811-.811 1.876-1.216 2.941-1.216s2.13.405 2.941 1.216a4.164 4.164 0 0 1 0 5.881zM320.944 284.986a7.688 7.688 0 0 0-7.687 7.687v66.826a7.688 7.688 0 0 0 15.374 0v-66.826a7.687 7.687 0 0 0-7.687-7.687zM345.635 284.986a7.686 7.686 0 0 0-7.687 7.687v66.826a7.688 7.688 0 0 0 15.374 0v-66.826a7.688 7.688 0 0 0-7.687-7.687z"/></symbol><symbol id="laptop-3" viewBox="0 0 512.001 512.001"><path d="M504.313 378.767H108.414a7.687 7.687 0 1 0 0 15.374h388.213v8.173c0 21.909-17.824 39.733-39.733 39.733H55.107c-21.909 0-39.733-17.824-39.733-39.734v-8.173h60.584a7.687 7.687 0 1 0 0-15.374H39.971V95.837c0-14.272 11.322-25.882 25.238-25.882H446.79c13.916 0 25.238 11.611 25.238 25.882V354.24a7.687 7.687 0 1 0 15.374 0V95.837c0-22.749-18.218-41.256-40.612-41.256H65.21c-22.394 0-40.612 18.507-40.612 41.256v282.93H7.687A7.687 7.687 0 0 0 0 386.454v15.859c0 30.386 24.721 55.107 55.107 55.107h401.787c30.386 0 55.107-24.721 55.107-55.107v-15.86a7.688 7.688 0 0 0-7.688-7.686z"/><path d="M445.894 91.478H132.499a7.687 7.687 0 1 0 0 15.374h305.708v235.662H77.376V106.852h28.219a7.687 7.687 0 1 0 0-15.374H69.69a7.687 7.687 0 0 0-7.687 7.687V350.2a7.687 7.687 0 0 0 7.687 7.687h376.204a7.687 7.687 0 0 0 7.687-7.687V99.165a7.687 7.687 0 0 0-7.687-7.687z"/><path d="M352.332 240.145h-36.104c.097-1.996.163-4 .163-6.018 0-3.886-.19-7.75-.553-11.572 19.662-3.397 34.67-20.564 34.67-41.182v-6.893a7.687 7.687 0 1 0-15.374 0v6.893c0 13.082-9.556 23.969-22.053 26.061a7.683 7.683 0 0 0-6.719-3.965h-.72a50.495 50.495 0 0 0-19.969-29.452v-5.429a6.018 6.018 0 0 1 6.011-6.012c11.791 0 21.385-9.593 21.385-21.385v-9.869a7.687 7.687 0 1 0-15.374 0v9.869a6.018 6.018 0 0 1-6.011 6.011c-11.148 0-20.318 8.578-21.288 19.478a51.2 51.2 0 0 0-14.1-1.967 51.2 51.2 0 0 0-13.626 1.843c-1.028-10.842-10.176-19.353-21.282-19.353a6.019 6.019 0 0 1-6.012-6.011v-9.869a7.687 7.687 0 1 0-15.374 0v9.869c0 11.792 9.593 21.385 21.386 21.385a6.018 6.018 0 0 1 6.011 6.012v5.085a50.508 50.508 0 0 0-20.45 29.796h-1.309a7.685 7.685 0 0 0-6.567 3.694c-11.811-2.637-20.669-13.196-20.669-25.79v-6.893a7.687 7.687 0 1 0-15.374 0v6.893c0 20.087 14.244 36.906 33.16 40.9-.38 3.914-.578 7.873-.578 11.854 0 2.019.066 4.023.163 6.018H159.67a7.687 7.687 0 0 0 0 15.373h37.837c1.149 6.391 2.807 12.553 4.956 18.374-17.861 4.754-31.061 21.061-31.061 40.398v6.893a7.687 7.687 0 1 0 15.374 0v-6.893c0-13.186 9.706-24.146 22.348-26.114a83.735 83.735 0 0 0 3.249 5.23c11.429 16.858 26.923 26.142 43.629 26.142.058 0 .116-.006.174-.006.041.001.08.006.12.006.22 0 .436-.015.651-.033 16.343-.345 31.471-9.57 42.683-26.109a83.758 83.758 0 0 0 3.291-5.303c12.906 1.734 22.894 12.813 22.894 26.187v6.893a7.687 7.687 0 1 0 15.374 0v-6.893c0-19.53-13.464-35.971-31.596-40.538 2.124-5.78 3.762-11.895 4.902-18.234h37.837a7.687 7.687 0 1 0 0-15.374zM238.33 184.948c.381-.178.748-.38 1.091-.616a35.435 35.435 0 0 1 16.873-4.245c15.291 0 28.401 9.604 33.324 23.382h-66.647a35.216 35.216 0 0 1 15.359-18.521zm48.573 99.833c-6.483 9.561-14.426 15.825-22.922 18.251V237.92a7.687 7.687 0 1 0-15.374 0v65.268c-8.718-2.3-16.879-8.626-23.511-18.407-9.1-13.423-14.111-31.412-14.111-50.654 0-5.167.367-10.286 1.095-15.284h87.84a106.156 106.156 0 0 1 1.095 15.284c0 19.242-5.012 37.231-14.112 50.654z"/></symbol><symbol id="loss" viewBox="0 0 512 512"><path d="M459.113 389.986c0-10.773-8.764-19.538-19.538-19.538h-123.98c-1.819 0-3.573.268-5.244.735a19.45 19.45 0 0 0 .735-5.244v-25.405c0-4.536-1.567-8.704-4.17-12.024 2.602-3.319 4.169-7.488 4.169-12.024V291.08c0-10.773-8.765-19.538-19.538-19.538h-44.456a7.516 7.516 0 0 0 0 15.03h44.456c2.444 0 4.509 2.065 4.509 4.509v25.405c0 2.444-2.065 4.509-4.509 4.509H167.566c-2.444 0-4.509-2.065-4.509-4.509v-25.405c0-2.444 2.065-4.509 4.509-4.509h44.456a7.516 7.516 0 0 0 0-15.03h-44.456c-1.819 0-3.573.269-5.244.735a19.45 19.45 0 0 0 .735-5.244v-25.405c0-4.536-1.567-8.704-4.169-12.024 2.603-3.32 4.169-7.488 4.169-12.024v-25.405c0-10.773-8.765-19.538-19.538-19.538H19.538C8.765 172.639 0 181.404 0 192.177v25.405c0 4.536 1.567 8.704 4.169 12.024C1.566 232.925 0 237.093 0 241.629v25.405c0 4.536 1.567 8.704 4.169 12.024C1.567 282.377 0 286.545 0 291.081v25.405c0 4.536 1.567 8.704 4.169 12.024C1.566 331.829 0 335.997 0 340.533v25.405c0 4.536 1.567 8.704 4.169 12.024C1.566 381.281 0 385.449 0 389.985v25.405c0 4.536 1.567 8.704 4.169 12.024C1.567 430.734 0 434.903 0 439.438v25.405c0 10.773 8.765 19.538 19.538 19.538h123.981c4.536 0 8.704-1.567 12.024-4.169 3.32 2.603 7.488 4.169 12.024 4.169h123.981c4.536 0 8.704-1.567 12.023-4.169 3.32 2.603 7.488 4.169 12.024 4.169h123.981c10.773 0 19.538-8.765 19.538-19.538v-25.405c0-4.536-1.567-8.704-4.169-12.024 2.603-3.319 4.169-7.488 4.169-12.024v-25.404zm-311.085 74.858c0 2.444-2.064 4.509-4.509 4.509H19.538c-2.444 0-4.509-2.065-4.509-4.509v-25.405c0-2.444 2.065-4.509 4.509-4.509h123.981c2.444 0 4.509 2.065 4.509 4.509v25.405zm0-49.453c0 2.444-2.065 4.509-4.509 4.509H19.538c-2.444 0-4.509-2.064-4.509-4.509v-25.405c0-2.444 2.065-4.509 4.509-4.509h123.981c2.444 0 4.509 2.065 4.509 4.509v25.405zm0-49.452c0 2.444-2.065 4.509-4.509 4.509H19.538c-2.444 0-4.509-2.065-4.509-4.509v-25.405c0-2.444 2.065-4.509 4.509-4.509h123.981c2.444 0 4.509 2.065 4.509 4.509v25.405zm0-49.453c0 2.444-2.065 4.509-4.509 4.509H19.538c-2.444.001-4.509-2.064-4.509-4.508v-25.406c0-2.444 2.065-4.509 4.509-4.509h123.981c2.444 0 4.509 2.065 4.509 4.509v25.405zm0-49.452c0 2.444-2.065 4.509-4.509 4.509H19.538c-2.444 0-4.509-2.064-4.509-4.509v-25.405c0-2.444 2.065-4.509 4.509-4.509h123.981c2.444 0 4.509 2.065 4.509 4.509v25.405zm0-49.453c0 2.444-2.065 4.509-4.509 4.509H19.538c-2.444 0-4.509-2.065-4.509-4.509v-25.405c0-2.444 2.065-4.509 4.509-4.509h123.981c2.444 0 4.509 2.065 4.509 4.509v25.405zm148.028 247.263c.001 2.444-2.064 4.509-4.508 4.509H167.566c-2.444 0-4.509-2.065-4.509-4.509v-25.405c0-2.444 2.065-4.509 4.509-4.509h123.981c2.444 0 4.509 2.065 4.509 4.509v25.405zm0-49.453c0 2.444-2.065 4.509-4.509 4.509H167.566c-2.444 0-4.509-2.064-4.509-4.509v-25.405c0-2.444 2.065-4.509 4.509-4.509h123.981c2.444 0 4.509 2.065 4.509 4.509v25.405zm0-49.452c0 2.444-2.065 4.509-4.509 4.509H167.566c-2.444 0-4.509-2.065-4.509-4.509v-25.405c0-2.444 2.065-4.509 4.509-4.509h123.981c2.445 0 4.509 2.065 4.509 4.509v25.405zm148.029 98.905h-.001c0 2.444-2.065 4.509-4.509 4.509h-123.98c-2.444 0-4.509-2.065-4.509-4.509v-25.405c0-2.444 2.065-4.509 4.509-4.509h123.981c2.444 0 4.509 2.065 4.509 4.509v25.405zm0-49.453c0 2.444-2.065 4.509-4.509 4.509H315.595c-2.444 0-4.509-2.065-4.509-4.509v-25.405c0-2.444 2.064-4.509 4.509-4.509h123.981c2.444 0 4.509 2.065 4.509 4.509v25.405zM313.674 217.46l-5.331-31.816a7.515 7.515 0 0 0-14.823 2.485l2.359 14.076L38.764 28.904a7.514 7.514 0 1 0-8.399 12.463L286.96 214.318l-13.755 2.305a7.516 7.516 0 0 0 2.483 14.823l31.816-5.331a7.52 7.52 0 0 0 4.878-3.049 7.525 7.525 0 0 0 1.292-5.606z"/><path d="M504.381 269.523a7.516 7.516 0 0 0-9.282 5.175c-9.038 31.815-38.463 54.036-71.557 54.036-41.025 0-74.403-33.376-74.403-74.402 0-41.025 33.377-74.402 74.403-74.402 36.352 0 67.957 27.043 73.516 62.904a7.515 7.515 0 0 0 14.853-2.303c-6.677-43.072-43.934-75.631-88.368-75.631-49.313 0-89.432 40.119-89.432 89.431 0 49.313 40.12 89.431 89.432 89.431 39.779 0 75.149-26.712 86.013-64.958a7.515 7.515 0 0 0-5.175-9.281z"/><path d="M423.055 196.197c-32.056 0-58.135 26.079-58.135 58.134s26.079 58.134 58.135 58.134 58.134-26.078 58.134-58.134c0-32.055-26.078-58.134-58.134-58.134zm.001 101.239c-23.769 0-43.105-19.337-43.105-43.104 0-23.768 19.337-43.104 43.105-43.104 23.768 0 43.104 19.337 43.104 43.104s-19.338 43.104-43.104 43.104z"/><path d="M426.737 248.855v-14.9c3.163.254 4.799 1.005 8.212 2.709 1.713.861 3.841.532 5.206-1.785 1.104-1.876 1.843-4.869-.423-6.754-3.225-2.677-8.89-3.526-12.997-3.526v-2.222c0-1.266-1.565-2.138-2.878-2.138-1.453 0-2.879.885-2.879 2.116v2.371c-9.792 1.291-16.425 6.556-16.425 16.509 0 10.195 7.37 13.561 16.425 17.017V275.1c-4.482-.54-6.622-2.298-10.836-5.461-2.106-1.578-4.166-.981-5.715 1.19-1.982 2.791-1.706 5.226-.042 7.471 3.195 4.31 10.146 6.832 16.594 6.832v2.394c0 1.287 1.486 2.136 2.879 2.136 1.313 0 2.878-.864 2.878-2.116v-2.624c8.551-1.322 16.001-6.733 16.001-17.948.001-10.279-6.46-14.649-16-18.119zm-5.079-1.862c-5.088-2.033-6.773-3.677-6.773-6.857 0-3.685 3.118-5.349 6.773-5.927v12.784zm4.403 28.023v-14.731c5.267 2.307 6.349 4.818 6.349 7.788 0 3.907-2.527 6.134-6.349 6.943z"/></symbol><symbol id="package" viewBox="0 0 512 512"><path d="M510.085 253.684l-40.079-70.329c7.966-13.745 12.532-29.696 12.532-46.695 0-11.396-2.032-22.49-6.041-33.052l13.606-14.027c9.299-9.586 9.068-24.87-.521-34.17-9.839-9.543-25.1-8.831-34.17.521l-7.739 7.979c-11.507-9.273-25.032-15.7-39.527-18.706a7.5 7.5 0 0 0-3.047 14.687 78.107 78.107 0 0 1 32.084 14.832l-49.922 51.466-18.677-18.677c-10.145-10.143-26.785-9.268-35.831 1.833-7.728 9.482-7.176 23.508 1.656 32.342l36.026 36.024c9.771 9.776 25.288 9.17 34.433-.262l59.843-61.694a77.966 77.966 0 0 1 2.826 20.903c0 43.281-35.229 78.416-78.416 78.416-43.343 0-78.416-35.32-78.416-78.416 0-37.005 26.258-69.296 62.436-76.782a7.5 7.5 0 0 0-3.039-14.689c-43.108 8.921-74.397 47.391-74.397 91.472a93.38 93.38 0 0 0 2.223 20.275H71.226a24.442 24.442 0 0 0-21.192 12.314l-48.12 84.434c-5.48 9.618 1.455 21.574 12.537 21.574h39.457V444.54c0 12.366 10.061 22.428 22.428 22.428h359.327c12.366 0 22.427-10.062 22.427-22.428v-72.588c0-4.143-3.357-7.5-7.5-7.5s-7.5 3.357-7.5 7.5v72.588c0 4.096-3.332 7.428-7.427 7.428H263.5V192.746l41.271 72.417a20.036 20.036 0 0 0 17.373 10.096h120.947v61.694c0 4.143 3.357 7.5 7.5 7.5s7.5-3.357 7.5-7.5v-61.694h39.458c5.2 0 9.863-2.685 12.477-7.181 2.612-4.497 2.634-9.877.059-14.394zm-494.652 6.574l47.632-83.579a9.413 9.413 0 0 1 8.161-4.742h171.867l-48.897 85.799v.001a5.004 5.004 0 0 1-4.34 2.521H15.433zM248.5 451.969H76.337c-4.095 0-7.427-3.332-7.427-7.428V275.258h120.947a20.037 20.037 0 0 0 17.373-10.095l41.271-72.417v259.223zm145.602-284.961c-3.601 3.713-9.484 3.677-13.058.099l-36.026-36.026c-3.55-3.55-3.592-9.368 0-12.96 3.572-3.574 9.39-3.572 12.96 0l24.062 24.062a7.501 7.501 0 0 0 10.688-.082l73.452-75.725a9.155 9.155 0 0 1 12.958-.197 9.158 9.158 0 0 1 .197 12.959c-10.521 10.848-74.372 76.673-85.233 87.87zm-71.959 93.25a5.005 5.005 0 0 1-4.34-2.522l-48.897-85.799h33.716c14.341 35.118 48.752 58.529 87.471 58.128 27.172-.276 52.782-12.247 70.384-33.13l36.089 63.324-174.423-.001z"/></symbol><symbol id="rating" viewBox="0 0 512 512"><path d="M159.464 418.659a10.822 10.822 0 0 0-8.79-7.41l-25.152-3.655-11.248-22.792a10.82 10.82 0 0 0-9.763-6.069 10.82 10.82 0 0 0-9.763 6.069L83.5 407.594l-25.153 3.655a10.82 10.82 0 0 0-8.788 7.41 10.82 10.82 0 0 0 2.755 11.16l18.2 17.741-4.296 25.052a10.824 10.824 0 0 0 4.331 10.648 10.825 10.825 0 0 0 11.466.829l22.497-11.828 22.497 11.827a10.89 10.89 0 0 0 5.076 1.262c2.248 0 4.481-.704 6.389-2.091a10.82 10.82 0 0 0 4.331-10.648l-4.296-25.051 18.2-17.741a10.82 10.82 0 0 0 2.755-11.16zm-33.118 19.622a10.886 10.886 0 0 0-3.131 9.636l3.22 18.773-16.857-8.862a10.887 10.887 0 0 0-10.134-.001l-16.859 8.863 3.219-18.769a10.887 10.887 0 0 0-3.13-9.64l-13.638-13.295 18.848-2.739a10.886 10.886 0 0 0 8.198-5.955l8.429-17.08 8.429 17.079a10.885 10.885 0 0 0 8.197 5.956l18.849 2.739-13.64 13.295zM312.634 418.659a10.819 10.819 0 0 0-8.789-7.41l-25.152-3.655-11.248-22.792a10.82 10.82 0 0 0-9.763-6.069 10.82 10.82 0 0 0-9.763 6.069l-11.248 22.792-25.153 3.655c-4.131.6-7.499 3.44-8.788 7.41a10.82 10.82 0 0 0 2.755 11.16l18.2 17.741-4.296 25.05a10.82 10.82 0 0 0 4.331 10.649 10.847 10.847 0 0 0 6.389 2.091c1.73 0 3.469-.417 5.076-1.262l22.497-11.828 22.497 11.828a10.817 10.817 0 0 0 11.465-.829 10.82 10.82 0 0 0 4.331-10.648l-4.296-25.051 18.2-17.741a10.82 10.82 0 0 0 2.755-11.16zm-33.117 19.622a10.882 10.882 0 0 0-3.13 9.636l3.22 18.773-16.857-8.862a10.888 10.888 0 0 0-10.134-.001l-16.858 8.863 3.22-18.773a10.886 10.886 0 0 0-3.131-9.636l-13.638-13.295 18.848-2.739a10.886 10.886 0 0 0 8.198-5.955l8.429-17.08 8.429 17.079a10.885 10.885 0 0 0 8.197 5.956l18.848 2.739-13.641 13.295zM465.802 418.659a10.81 10.81 0 0 0-8.786-7.41l-25.152-3.655-11.249-22.792a10.82 10.82 0 0 0-9.763-6.069 10.82 10.82 0 0 0-9.763 6.069l-11.249 22.792-25.153 3.655a10.82 10.82 0 0 0-8.788 7.41 10.82 10.82 0 0 0 2.755 11.16l18.2 17.741-4.296 25.05a10.82 10.82 0 0 0 4.33 10.649 10.823 10.823 0 0 0 11.466.829l22.497-11.828 22.497 11.828a10.89 10.89 0 0 0 5.076 1.262c2.248 0 4.481-.705 6.389-2.091a10.819 10.819 0 0 0 4.33-10.648l-4.296-25.051 18.2-17.741a10.82 10.82 0 0 0 2.755-11.16zm-33.114 19.622a10.886 10.886 0 0 0-3.131 9.636l3.22 18.773-16.857-8.862a10.888 10.888 0 0 0-10.134-.001l-16.858 8.863 3.22-18.773a10.886 10.886 0 0 0-3.131-9.636l-13.638-13.295 18.848-2.739a10.886 10.886 0 0 0 8.198-5.955l8.429-17.079 8.429 17.079a10.885 10.885 0 0 0 8.197 5.956l18.848 2.739-13.64 13.294z"/><circle cx="230.82" cy="128.39" r="7.5"/><circle cx="284.28" cy="128.39" r="7.5"/><path d="M284.653 178.032a7.5 7.5 0 0 0 0-10.606 7.498 7.498 0 0 0-10.606 0 19.688 19.688 0 0 1-14.011 5.803 19.68 19.68 0 0 1-14.01-5.803 7.498 7.498 0 0 0-10.606 0 7.5 7.5 0 0 0 0 10.606c6.576 6.576 15.318 10.197 24.617 10.197 9.299 0 18.042-3.622 24.616-10.197z"/><path d="M466.528 352.078h-73.234V322c0-28.301-19.247-52.571-46.804-59.019l-29.271-6.849c-9.774-2.287-16.599-10.894-16.599-20.931v-10.038a79.093 79.093 0 0 0 19.752-17.689c16.805-.336 30.436-13.816 31.011-30.563 8.125-2.725 14.003-10.395 14.003-19.427V119.04c0-8.732-5.497-16.186-13.205-19.134a7.565 7.565 0 0 0 4.442-8.974c-7.182-26.604-18.764-47.775-34.425-62.924C304.155 10.552 284.158 1.14 262.763.035c-.992-.052-19.862-.853-41.311 9.18a71.2 71.2 0 0 0-31.634-7.416c-39.214 0-71.117 31.903-71.117 71.116a70.995 70.995 0 0 0 33.802 60.548v24.02c0 11.303 9.196 20.499 20.499 20.499h9.856c5.283 20.83 18.922 38.35 37.119 48.805v8.413c0 10.037-6.825 18.645-16.598 20.931l-29.271 6.849c-27.558 6.448-46.804 30.717-46.804 59.019v30.078H45.472c-16.895 0-30.64 13.745-30.64 30.64v98.643c0 16.895 13.745 30.64 30.64 30.64h421.056c16.895 0 30.64-13.745 30.64-30.64v-98.643c0-16.894-13.745-30.639-30.64-30.639zM332.327 186.516a77.62 77.62 0 0 0 2.706-8.534h1.087a16.48 16.48 0 0 1-3.793 8.534zm17.928-67.477v38.444a5.372 5.372 0 0 1-5.366 5.366h-7.451v-49.178h7.451a5.375 5.375 0 0 1 5.366 5.368zm-185.256-18.87c-6.144 2.616-10.755 8.148-12.094 14.848a55.882 55.882 0 0 1-19.071-42.102c0-30.87 25.114-55.984 55.984-55.984 5.16 0 10.275.719 15.195 2.102-.135.1-.27.193-.405.295a7.567 7.567 0 0 0 9.106 12.086c22.833-17.203 48.037-16.281 48.268-16.265 17.636.911 34.356 8.897 49.696 23.736 12.419 12.013 21.979 28.661 28.469 49.549l-13.096 5.258c-.466.187-.912.42-1.332.696-8.065 5.293-27.275 8.542-37.497 8.542-25.041 0-49.16-8.947-69.636-25.282l-23.903-25.767c.24-.36.479-.722.722-1.075a7.567 7.567 0 0 0-12.479-8.561 119.064 119.064 0 0 0-4.153 6.51l-.005.008-.021.035c-.023.04-.049.078-.072.117l-.012.024a90.825 90.825 0 0 0-13.664 51.23zm15.456 58.527v4.154h-7.452a5.372 5.372 0 0 1-5.366-5.366V119.04a5.373 5.373 0 0 1 5.366-5.367h7.452v45.023zm5.818-65.339a7.538 7.538 0 0 0-2.65 1.206c-1.17.506-2.35.994-3.548 1.444a75.736 75.736 0 0 1 1.575-14.432 75.635 75.635 0 0 1 4.695-14.745c4.885 5.989 10.098 11.503 15.597 16.514-5.571 4.484-10.324 7.246-12.492 8.411a74.292 74.292 0 0 1-3.177 1.602zm9.315 65.339V105.616c.342-.178.688-.349 1.027-.531 2.898-1.558 9.668-5.503 17.255-11.981 22.092 16.161 47.721 24.957 74.354 24.957 8.435 0 22.56-1.825 34.081-5.662v46.297c0 12.363-3.572 23.9-9.72 33.661h-46.302a7.566 7.566 0 0 0 0 15.132h33.033c-10.97 9.092-25.042 14.565-40.37 14.565-34.936.001-63.358-28.422-63.358-63.358zm270.941 338.171H45.472c-8.551 0-15.507-6.956-15.507-15.507v-98.643c0-8.551 6.956-15.507 15.507-15.507h121.752a7.566 7.566 0 0 0 0-15.132h-24.786V322c0-21.236 14.441-39.447 35.119-44.285l3.865-.904a91.912 91.912 0 0 0 15.588 19.585 7.541 7.541 0 0 0 5.221 2.091 7.566 7.566 0 0 0 5.223-13.041 76.98 76.98 0 0 1-10.44-12.283l9.814-2.296c16.653-3.896 28.283-18.563 28.283-35.666v-1.724a78.18 78.18 0 0 0 23.835 3.711 78.114 78.114 0 0 0 26.542-4.629v2.642c0 17.103 11.631 31.769 28.284 35.666l9.815 2.297c-14.181 20.839-37.637 33.442-63.287 33.442-11.262 0-22.106-2.386-32.23-7.092a7.567 7.567 0 0 0-6.379 13.723c12.138 5.642 25.127 8.502 38.609 8.502 32.674 0 62.379-17.069 78.894-44.923l3.849.901c20.678 4.838 35.119 23.049 35.119 44.285v30.078H201.188a7.566 7.566 0 0 0 0 15.132h265.34c8.551 0 15.507 6.956 15.507 15.507v98.641h.001c0 8.551-6.956 15.507-15.507 15.507z"/></symbol><symbol id="toolbox" viewBox="0 0 512 512"><path d="M323.101 337.25a67.047 67.047 0 0 0-28.266-54.72 44.312 44.312 0 0 0 5.542-21.449c0-17.499-10.336-33.413-26.334-40.542a7.501 7.501 0 0 0-10.553 6.851v26.749h-14.979V227.39a7.501 7.501 0 0 0-10.553-6.851c-15.998 7.129-26.334 23.043-26.334 40.542 0 7.639 1.992 14.986 5.561 21.437a67.078 67.078 0 0 0-28.285 54.733c0 26.576 15.722 50.516 39.655 61.242l-.388 8.681c-.343 7.671 2.391 14.95 7.697 20.5 5.307 5.549 12.458 8.604 20.136 8.604 7.714 0 14.889-3.08 20.201-8.674 5.312-5.594 8.02-12.917 7.623-20.62l-.436-8.466c23.969-10.713 39.713-34.658 39.713-61.268zm-93.81 44.747c-15.512-9.271-25.392-26.18-25.392-44.745a52.104 52.104 0 0 1 22.667-42.999 44.192 44.192 0 0 0 6.432 4.772l-3.707 82.972zm38.289-93.911a7.5 7.5 0 0 0-4.53 7.276l5.793 112.395a12.741 12.741 0 0 1-3.518 9.519A12.745 12.745 0 0 1 256 421.28a12.752 12.752 0 0 1-9.295-3.972 12.752 12.752 0 0 1-3.553-9.463l.627-14.047.002-.033 4.413-98.795a7.5 7.5 0 0 0-4.377-7.157c-10.445-4.771-17.194-15.263-17.194-26.729a29.38 29.38 0 0 1 6.888-18.887v13.715c0 7.294 5.934 13.228 13.228 13.228h18.522c7.294 0 13.228-5.934 13.228-13.228v-13.715a29.375 29.375 0 0 1 6.887 18.885 29.363 29.363 0 0 1-17.796 27.004zm14.961 94.013l-4.26-82.635a44.34 44.34 0 0 0 7.179-5.192 52.078 52.078 0 0 1 22.64 42.979c0 18.642-9.948 35.601-25.559 44.848z"/><path d="M485.585 93.863H349.988V44.11c0-17.569-14.293-31.862-31.863-31.862H195.093c-17.569 0-31.863 14.293-31.863 31.862v49.753H26.415C11.85 93.863 0 105.712 0 120.277v63.121c0 7.664 5.903 13.967 13.399 14.622v257.276c0 9.81 7.98 17.79 17.79 17.79h20.582v13.497c0 7.262 5.908 13.17 13.17 13.17h27.031c7.262 0 13.17-5.908 13.17-13.17v-13.497h301.716v13.497c0 7.262 5.908 13.17 13.17 13.17h27.031c7.262 0 13.17-5.908 13.17-13.17v-13.497h20.582c9.81 0 17.79-7.98 17.79-17.79V198.02c7.497-.656 13.399-6.958 13.399-14.622v-63.121c0-14.565-11.85-26.414-26.415-26.414zM178.23 44.11c0-9.298 7.564-16.862 16.863-16.862h123.032c9.298 0 16.863 7.564 16.863 16.862v49.753h-17.277V57.656c0-8.05-6.549-14.6-14.599-14.6h-93.005c-8.05 0-14.599 6.55-14.599 14.6v36.207H178.23V44.11zm124.481 13.945v35.807h-92.204V58.055h92.204zM90.142 484.752H66.771v-11.667h23.371v11.667zm0-26.668H33.081a4.687 4.687 0 0 1-4.682-4.681v-57.062h30.954c16.977 0 30.789 13.812 30.789 30.789v30.954zm355.087 26.668h-23.371v-11.667h23.371v11.667zm38.372-31.348c0 2.581-2.1 4.681-4.682 4.681h-57.061v-30.953c0-16.978 13.812-30.789 30.789-30.789h30.954v57.061zm13.4-270.319h-53.945v-18.412c0-9.529-7.725-17.254-17.254-17.254h-22.887c-9.53 0-17.255 7.725-17.255 17.255v18.411H205.73a7.5 7.5 0 0 0 0 15h179.93v19.552c0 9.529 7.725 17.254 17.254 17.254h22.888c9.529 0 17.254-7.725 17.254-17.254v-19.551h40.545v183.258h-30.954c-25.289 0-45.789 20.5-45.789 45.789v30.953H105.142v-30.953c0-25.289-20.5-45.789-45.789-45.789H28.399V198.085h32.038v19.552c0 9.529 7.725 17.254 17.254 17.254h22.887c9.53 0 17.255-7.725 17.255-17.255v-19.551h52.897a7.5 7.5 0 0 0 0-15h-52.897v-18.412c0-9.529-7.725-17.254-17.254-17.254H77.692c-9.529 0-17.254 7.725-17.254 17.254v18.412H15v-62.809c0-6.304 5.11-11.414 11.414-11.414H485.586c6.304 0 11.415 5.11 11.415 11.415v62.808zm-68.945-18.412v52.964a2.256 2.256 0 0 1-2.254 2.254h-22.887a2.257 2.257 0 0 1-2.255-2.254v-52.964a2.257 2.257 0 0 1 2.255-2.254h22.887a2.257 2.257 0 0 1 2.254 2.254zM75.438 217.638v-27.042-.01V164.674a2.256 2.256 0 0 1 2.254-2.254h22.887a2.257 2.257 0 0 1 2.255 2.254V217.638a2.257 2.257 0 0 1-2.255 2.254H77.692a2.257 2.257 0 0 1-2.254-2.254z"/></symbol><symbol id="wallet" viewBox="0 0 512 512"><path d="M188.717 134.674v-16.866c2.342.189 4.239.618 7.043 1.964 1.992.961 5.569 3.453 8.146-.918a8.44 8.44 0 0 0 .91-2.163c1.09-4.182-1.346-6.243-5.558-7.789-3.249-1.187-7.323-1.683-10.542-1.683v-2.516c0-1.425-1.76-2.42-3.258-2.42-1.621 0-3.258.986-3.258 2.396v2.684c-7.438.981-13.931 4.03-17.058 10.781-1.989 4.287-2.182 11.306.144 15.621 3.519 6.541 9.909 8.871 16.915 11.548v19.07c-5.015-.606-7.394-2.523-12.267-6.181-2.387-1.788-4.716-1.113-6.468 1.348-2.172 3.052-2.029 5.787-.048 8.456 3.734 5.036 11.848 7.734 18.783 7.734v2.708c0 1.444 1.666 2.419 3.258 2.419 1.478 0 3.258-.974 3.258-2.396V175.5c5.366-.829 9.728-2.954 13.081-6.372 3.354-3.417 5.031-8.064 5.031-13.943.001-12.051-7.917-16.804-18.112-20.511zm-5.75-2.108c-5.823-2.326-7.667-4.2-7.667-7.763 0-4.178 3.539-6.056 7.667-6.708v14.471zm4.983 31.72v-16.675c5.967 2.614 7.187 5.456 7.187 8.815.001 4.474-2.967 6.967-7.187 7.86zM316.533 26.893c-35.73 0-64.798 29.068-64.798 64.798s29.068 64.798 64.798 64.798c35.73 0 64.798-29.068 64.798-64.798s-29.068-64.798-64.798-64.798zm0 114.596c-27.459 0-49.797-22.339-49.797-49.797s22.338-49.797 49.797-49.797c27.459 0 49.797 22.339 49.797 49.797 0 27.457-22.338 49.797-49.797 49.797z"/><path d="M320.702 85.493V68.626c3.732.301 5.653 1.248 9.296 3.066 2.041 1.025 4.399.515 5.893-2.021 1.521-2.587 1.837-5.717-.479-7.645-3.663-3.041-9.978-3.99-14.71-3.99V55.52c0-1.425-1.76-2.42-3.258-2.42-1.621 0-3.258.986-3.258 2.396v2.684c-2.429.32-4.76.896-6.995 1.725-7.096 2.636-11.596 8.355-11.596 16.963 0 11.532 8.323 15.338 18.591 19.262v19.07c-5.015-.606-7.394-2.523-12.267-6.181-2.387-1.788-4.716-1.113-6.468 1.348-2.172 3.052-2.029 5.787-.048 8.456 3.718 5.015 11.736 7.734 18.783 7.734v2.708c0 1.444 1.666 2.419 3.258 2.419 1.478 0 3.258-.974 3.258-2.396v-2.971c9.658-1.492 18.112-7.6 18.112-20.315.001-11.679-7.376-16.606-18.112-20.509zm-5.75-2.109c-5.823-2.326-7.666-4.2-7.666-7.762 0-4.178 3.539-6.056 7.666-6.708v14.47zm4.983 31.72V98.43c5.967 2.614 7.187 5.456 7.187 8.815.001 4.473-2.967 6.966-7.187 7.859z"/><path d="M468.206 338.579a7.5 7.5 0 0 0 7.5-7.5V208.908c0-10.753-8.749-19.501-19.501-19.501H262.313a91.88 91.88 0 0 0 8.722-18.13c13.416 7.699 28.952 12.107 45.499 12.107 50.559 0 91.692-41.133 91.692-91.692C408.225 41.133 367.091 0 316.533 0c-39.895 0-73.914 25.615-86.493 61.259-13.802-7.924-29.337-12.077-45.492-12.077-50.559 0-91.692 41.132-91.692 91.692a91.493 91.493 0 0 0 13.927 48.533H55.794c-10.753 0-19.501 8.749-19.501 19.501v283.591c0 10.753 8.749 19.501 19.501 19.501h182.704a7.5 7.5 0 0 0 7.5-7.5 7.5 7.5 0 0 0-7.5-7.5H55.794c-2.439 0-4.5-2.061-4.5-4.5V208.908c0-2.439 2.061-4.5 4.5-4.5h400.411c2.439 0 4.5 2.061 4.5 4.5v83.459H342.342c-32.167 0-58.337 26.17-58.337 58.337s26.17 58.337 58.337 58.337h118.364V492.5c0 2.439-2.061 4.5-4.5 4.5H273.501c-4.142 0-7.5 3.357-7.5 7.5s3.358 7.5 7.5 7.5h182.704c10.753 0 19.501-8.748 19.501-19.501V366.081a7.5 7.5 0 0 0-7.5-7.5 7.5 7.5 0 0 0-7.5 7.5v27.958H342.342c-23.895 0-43.336-19.44-43.336-43.336s19.44-43.336 43.336-43.336h118.364v23.711a7.5 7.5 0 0 0 7.5 7.501zM125.185 189.404a76.537 76.537 0 0 1-17.327-48.532c0-42.287 34.403-76.691 76.691-76.691 14.906 0 29.183 4.22 41.572 12.245a91.69 91.69 0 0 0-1.257 13.687c-11.242-8.95-25.339-14.04-40.314-14.04-35.73 0-64.798 29.068-64.798 64.798 0 18.987 8.411 36.511 21.961 48.533h-16.528zm70.524.002h-22.322c-22.432-5.138-38.636-25.427-38.636-48.533 0-27.458 22.338-49.797 49.797-49.797 19.117 0 39.007 11.918 45.105 29.946 2.58 7.621 4.693 9.3 4.693 19.851-.001 23.107-16.205 43.396-38.637 48.533zm48.201 0h-16.525c10.659-9.456 18.126-22.319 20.832-36.618a91.554 91.554 0 0 0 9.938 9.595 76.754 76.754 0 0 1-14.245 27.023zm-4.067-97.714c0-42.076 34.243-76.691 76.691-76.691 42.288 0 76.691 34.403 76.691 76.691 0 42.288-34.403 76.691-76.691 76.691-42.536-.001-76.691-34.688-76.691-76.691z"/><path d="M370.468 324.505h-26.05c-14.738 0-26.728 11.991-26.728 26.729s11.99 26.728 26.728 26.728h26.05c14.738 0 26.728-11.991 26.728-26.728 0-14.74-11.991-26.729-26.728-26.729zm0 38.455h-26.05c-6.466 0-11.727-5.26-11.727-11.727 0-6.466 5.26-11.728 11.727-11.728h26.05c6.466 0 11.727 5.261 11.727 11.728s-5.261 11.727-11.727 11.727z"/></symbol></svg>